ISO-10303-21;
HEADER;
FILE_DESCRIPTION (( 'STEP AP214' ),
    '1' );
FILE_NAME ('ECWU1105KCV.STEP',
    '2021-03-28T05:28:45',
    ( '' ),
    ( '' ),
    'SwSTEP 2.0',
    'SolidWorks 2017',
    '' );
FILE_SCHEMA (( 'AUTOMOTIVE_DESIGN' ));
ENDSEC;

DATA;
#1 = PRESENTATION_STYLE_ASSIGNMENT (( #1237 ) ) ;
#2 =( NAMED_UNIT ( * ) PLANE_ANGLE_UNIT ( ) SI_UNIT ( $, .RADIAN. ) );
#3 = PLANE ( 'NONE',  #745 ) ;
#4 = ORIENTED_EDGE ( 'NONE', *, *, #565, .F. ) ;
#5 = EDGE_LOOP ( 'NONE', ( #150, #16, #680, #87 ) ) ;
#6 = LINE ( 'NONE', #909, #1152 ) ;
#7 = FILL_AREA_STYLE ('',( #308 ) ) ;
#8 = SURFACE_STYLE_USAGE ( .BOTH. , #549 ) ;
#9 = COLOUR_RGB ( '',1.000000000000000000, 0.8117647058823529400, 0.5019607843137254800 ) ;
#10 = MECHANICAL_DESIGN_GEOMETRIC_PRESENTATION_REPRESENTATION (  '', ( #804 ), #332 ) ;
#11 = PRESENTATION_STYLE_ASSIGNMENT (( #185 ) ) ;
#12 = PLANE ( 'NONE',  #883 ) ;
#13 =( NAMED_UNIT ( * ) PLANE_ANGLE_UNIT ( ) SI_UNIT ( $, .RADIAN. ) );
#14 =( LENGTH_UNIT ( ) NAMED_UNIT ( * ) SI_UNIT ( .MILLI., .METRE. ) );
#15 = SURFACE_STYLE_FILL_AREA ( #759 ) ;
#16 = ORIENTED_EDGE ( 'NONE', *, *, #1299, .F. ) ;
#17 = EDGE_LOOP ( 'NONE', ( #717, #653, #598, #107 ) ) ;
#18 = CARTESIAN_POINT ( 'NONE',  ( -4.900000000000001200, 0.0000000000000000000, 3.150000000000000400 ) ) ;
#19 = DIRECTION ( 'NONE',  ( 0.0000000000000000000, 0.0000000000000000000, -1.000000000000000000 ) ) ;
#20 = ORIENTED_EDGE ( 'NONE', *, *, #535, .T. ) ;
#21 = AXIS2_PLACEMENT_3D ( 'NONE', #994, #699, #913 ) ;
#22 = VECTOR ( 'NONE', #735, 1000.000000000000000 ) ;
#23 = PRESENTATION_STYLE_ASSIGNMENT (( #831 ) ) ;
#24 = CARTESIAN_POINT ( 'NONE',  ( -4.550000000000000700, 0.05000000000000000300, 3.100000000000000500 ) ) ;
#25 = LINE ( 'NONE', #1060, #531 ) ;
#26 = LINE ( 'NONE', #553, #1088 ) ;
#27 = ADVANCED_FACE ( 'NONE', ( #605, #59 ), #1049, .T. ) ;
#28 = EDGE_LOOP ( 'NONE', ( #483, #285, #405, #701 ) ) ;
#29 = CARTESIAN_POINT ( 'NONE',  ( -4.550000000000000700, 0.0000000000000000000, -3.149999999999999900 ) ) ;
#30 = LINE ( 'NONE', #361, #168 ) ;
#31 = AXIS2_PLACEMENT_3D ( 'NONE', #266, #583, #787 ) ;
#32 = PLANE ( 'NONE',  #727 ) ;
#33 = ORIENTED_EDGE ( 'NONE', *, *, #720, .F. ) ;
#34 = FACE_OUTER_BOUND ( 'NONE', #422, .T. ) ;
#35 = DIRECTION ( 'NONE',  ( 0.0000000000000000000, 1.000000000000000000, 0.0000000000000000000 ) ) ;
#36 = PRESENTATION_STYLE_ASSIGNMENT (( #1063 ) ) ;
#37 = AXIS2_PLACEMENT_3D ( 'NONE', #724, #117, #431 ) ;
#38 = PRESENTATION_STYLE_ASSIGNMENT (( #750 ) ) ;
#39 = CARTESIAN_POINT ( 'NONE',  ( 4.900000000000000400, 5.049999999999999800, 3.100000000000000500 ) ) ;
#40 = EDGE_CURVE ( 'NONE', #1259, #138, #505, .T. ) ;
#41 = PRESENTATION_STYLE_ASSIGNMENT (( #65 ) ) ;
#42 = DIRECTION ( 'NONE',  ( 1.000000000000000000, 0.0000000000000000000, 0.0000000000000000000 ) ) ;
#43 = CARTESIAN_POINT ( 'NONE',  ( -4.550000000000000700, 0.0000000000000000000, -3.149999999999999900 ) ) ;
#44 = ADVANCED_FACE ( 'NONE', ( #305 ), #273, .F. ) ;
#45 = SURFACE_SIDE_STYLE ('',( #1034 ) ) ;
#46 = PLANE ( 'NONE',  #1066 ) ;
#47 = FACE_OUTER_BOUND ( 'NONE', #1168, .T. ) ;
#48 = CARTESIAN_POINT ( 'NONE',  ( 4.550000000000001600, 5.099999999999999600, 3.150000000000000400 ) ) ;
#49 = AXIS2_PLACEMENT_3D ( 'NONE', #1007, #1089, #900 ) ;
#50 = PLANE ( 'NONE',  #1061 ) ;
#51 = ORIENTED_EDGE ( 'NONE', *, *, #1143, .F. ) ;
#52 = DIRECTION ( 'NONE',  ( 0.0000000000000000000, -1.000000000000000000, 0.0000000000000000000 ) ) ;
#53 = ORIENTED_EDGE ( 'NONE', *, *, #803, .F. ) ;
#54 = AXIS2_PLACEMENT_3D ( 'NONE', #200, #1196, #497 ) ;
#55 = LINE ( 'NONE', #511, #1234 ) ;
#56 =( NAMED_UNIT ( * ) PLANE_ANGLE_UNIT ( ) SI_UNIT ( $, .RADIAN. ) );
#57 = VECTOR ( 'NONE', #918, 1000.000000000000000 ) ;
#58 = AXIS2_PLACEMENT_3D ( 'NONE', #1109, #328, #522 ) ;
#59 = FACE_BOUND ( 'NONE', #477, .T. ) ;
#60 = MECHANICAL_DESIGN_GEOMETRIC_PRESENTATION_REPRESENTATION (  '', ( #1031 ), #191 ) ;
#61 = DIRECTION ( 'NONE',  ( 0.0000000000000000000, 1.000000000000000000, 0.0000000000000000000 ) ) ;
#62 = CARTESIAN_POINT ( 'NONE',  ( -4.550000000000001600, 0.0000000000000000000, -3.149999999999999900 ) ) ;
#63 = VECTOR ( 'NONE', #953, 1000.000000000000000 ) ;
#64 = MECHANICAL_DESIGN_GEOMETRIC_PRESENTATION_REPRESENTATION (  '', ( #924 ), #277 ) ;
#65 = SURFACE_STYLE_USAGE ( .BOTH. , #673 ) ;
#66 = VERTEX_POINT ( 'NONE', #584 ) ;
#67 = DIRECTION ( 'NONE',  ( 1.000000000000000000, 0.0000000000000000000, -0.0000000000000000000 ) ) ;
#68 = ORIENTED_EDGE ( 'NONE', *, *, #1012, .T. ) ;
#69 = ORIENTED_EDGE ( 'NONE', *, *, #1260, .F. ) ;
#70 = APPLICATION_CONTEXT ( 'automotive_design' ) ;
#71 = EDGE_CURVE ( 'NONE', #449, #98, #761, .T. ) ;
#72 =( NAMED_UNIT ( * ) PLANE_ANGLE_UNIT ( ) SI_UNIT ( $, .RADIAN. ) );
#73 = CARTESIAN_POINT ( 'NONE',  ( -4.900000000000001200, 5.099999999999999600, -3.149999999999999900 ) ) ;
#74 = LINE ( 'NONE', #728, #674 ) ;
#75 = SURFACE_SIDE_STYLE ('',( #436 ) ) ;
#76 = PRESENTATION_LAYER_ASSIGNMENT (  '', '', ( #823 ) ) ;
#77 = LINE ( 'NONE', #407, #791 ) ;
#78 = CARTESIAN_POINT ( 'NONE',  ( -4.900000000000000400, 5.049999999999999800, 3.100000000000000500 ) ) ;
#79 = CARTESIAN_POINT ( 'NONE',  ( -4.900000000000001200, 0.04999999999999969700, -3.100000000000000100 ) ) ;
#80 = EDGE_CURVE ( 'NONE', #110, #1026, #26, .T. ) ;
#81 = ORIENTED_EDGE ( 'NONE', *, *, #545, .T. ) ;
#82 = UNCERTAINTY_MEASURE_WITH_UNIT (LENGTH_MEASURE( 1.000000000000000100E-005 ), #1216, 'distance_accuracy_value', 'NONE');
#83 = MECHANICAL_DESIGN_GEOMETRIC_PRESENTATION_REPRESENTATION (  '', ( #1086 ), #136 ) ;
#84 = CARTESIAN_POINT ( 'NONE',  ( 4.550000000000001600, 5.049999999999999800, -3.100000000000000100 ) ) ;
#85 = CARTESIAN_POINT ( 'NONE',  ( -4.900000000000001200, 5.099999999999999600, 3.150000000000000400 ) ) ;
#86 = MECHANICAL_DESIGN_GEOMETRIC_PRESENTATION_REPRESENTATION (  '', ( #1051 ), #338 ) ;
#87 = ORIENTED_EDGE ( 'NONE', *, *, #211, .T. ) ;
#88 = DIRECTION ( 'NONE',  ( -1.000000000000000000, 0.0000000000000000000, -0.0000000000000000000 ) ) ;
#89 = DIRECTION ( 'NONE',  ( 0.0000000000000000000, 1.000000000000000000, 0.0000000000000000000 ) ) ;
#90 = ORIENTED_EDGE ( 'NONE', *, *, #572, .F. ) ;
#91 = PLANE ( 'NONE',  #929 ) ;
#92 = ORIENTED_EDGE ( 'NONE', *, *, #978, .T. ) ;
#93 = EDGE_CURVE ( 'NONE', #955, #275, #198, .T. ) ;
#94 = CARTESIAN_POINT ( 'NONE',  ( 4.900000000000001200, 5.099999999999999600, -3.149999999999999900 ) ) ;
#95 = PLANE ( 'NONE',  #995 ) ;
#96 = AXIS2_PLACEMENT_3D ( 'NONE', #1122, #19, #630 ) ;
#97 = CARTESIAN_POINT ( 'NONE',  ( -4.550000000000000700, 5.099999999999999600, -3.149999999999999900 ) ) ;
#98 = VERTEX_POINT ( 'NONE', #677 ) ;
#99 = PLANE ( 'NONE',  #938 ) ;
#100 = CARTESIAN_POINT ( 'NONE',  ( -4.550000000000000700, 5.049999999999999800, -3.100000000000000100 ) ) ;
#101 = VERTEX_POINT ( 'NONE', #967 ) ;
#102 = VERTEX_POINT ( 'NONE', #1173 ) ;
#103 = SURFACE_STYLE_FILL_AREA ( #228 ) ;
#104 = VECTOR ( 'NONE', #608, 1000.000000000000000 ) ;
#105 = CARTESIAN_POINT ( 'NONE',  ( -4.550000000000001600, 5.049999999999999800, 3.100000000000000500 ) ) ;
#106 = DIRECTION ( 'NONE',  ( 0.0000000000000000000, 1.000000000000000000, 0.0000000000000000000 ) ) ;
#107 = ORIENTED_EDGE ( 'NONE', *, *, #919, .T. ) ;
#108 = DIRECTION ( 'NONE',  ( 0.0000000000000000000, 0.0000000000000000000, 1.000000000000000000 ) ) ;
#109 = EDGE_CURVE ( 'NONE', #733, #840, #1022, .T. ) ;
#110 = VERTEX_POINT ( 'NONE', #783 ) ;
#111 = DIRECTION ( 'NONE',  ( 1.000000000000000000, 0.0000000000000000000, -0.0000000000000000000 ) ) ;
#112 = ORIENTED_EDGE ( 'NONE', *, *, #990, .T. ) ;
#113 = VERTEX_POINT ( 'NONE', #691 ) ;
#114 = UNCERTAINTY_MEASURE_WITH_UNIT (LENGTH_MEASURE( 1.000000000000000100E-005 ), #222, 'distance_accuracy_value', 'NONE');
#115 = UNCERTAINTY_MEASURE_WITH_UNIT (LENGTH_MEASURE( 1.000000000000000100E-005 ), #875, 'distance_accuracy_value', 'NONE');
#116 = CARTESIAN_POINT ( 'NONE',  ( 4.550000000000001600, 0.0000000000000000000, -3.149999999999999900 ) ) ;
#117 = DIRECTION ( 'NONE',  ( 0.0000000000000000000, 0.0000000000000000000, -1.000000000000000000 ) ) ;
#118 = LINE ( 'NONE', #849, #1185 ) ;
#119 = SURFACE_STYLE_FILL_AREA ( #310 ) ;
#120 = DIRECTION ( 'NONE',  ( 0.0000000000000000000, 0.0000000000000000000, -1.000000000000000000 ) ) ;
#121 = FILL_AREA_STYLE ('',( #637 ) ) ;
#122 = EDGE_CURVE ( 'NONE', #1285, #295, #235, .T. ) ;
#123 = ORIENTED_EDGE ( 'NONE', *, *, #397, .T. ) ;
#124 = PLANE ( 'NONE',  #451 ) ;
#125 = VECTOR ( 'NONE', #439, 1000.000000000000000 ) ;
#126 = PRESENTATION_LAYER_ASSIGNMENT (  '', '', ( #924 ) ) ;
#127 = ADVANCED_FACE ( 'NONE', ( #979 ), #1175, .F. ) ;
#128 = PRESENTATION_STYLE_ASSIGNMENT (( #8 ) ) ;
#129 = EDGE_CURVE ( 'NONE', #1285, #140, #180, .T. ) ;
#130 = CARTESIAN_POINT ( 'NONE',  ( 4.550000000000000700, 0.0000000000000000000, -3.149999999999999900 ) ) ;
#131 = VECTOR ( 'NONE', #599, 1000.000000000000000 ) ;
#132 = CARTESIAN_POINT ( 'NONE',  ( -4.900000000000001200, 0.0000000000000000000, -3.149999999999999900 ) ) ;
#133 = ORIENTED_EDGE ( 'NONE', *, *, #618, .F. ) ;
#134 = AXIS2_PLACEMENT_3D ( 'NONE', #62, #871, #951 ) ;
#135 = PLANE ( 'NONE',  #1093 ) ;
#136 =( GEOMETRIC_REPRESENTATION_CONTEXT ( 3 ) GLOBAL_UNCERTAINTY_ASSIGNED_CONTEXT ( ( #115 ) ) GLOBAL_UNIT_ASSIGNED_CONTEXT ( ( #875, #1170, #577 ) ) REPRESENTATION_CONTEXT ( 'NONE', 'WORKASPACE' ) );
#137 =( LENGTH_UNIT ( ) NAMED_UNIT ( * ) SI_UNIT ( .MILLI., .METRE. ) );
#138 = VERTEX_POINT ( 'NONE', #889 ) ;
#139 = CARTESIAN_POINT ( 'NONE',  ( 4.550000000000001600, 0.0000000000000000000, -3.149999999999999900 ) ) ;
#140 = VERTEX_POINT ( 'NONE', #876 ) ;
#141 = FACE_OUTER_BOUND ( 'NONE', #649, .T. ) ;
#142 =( LENGTH_UNIT ( ) NAMED_UNIT ( * ) SI_UNIT ( .MILLI., .METRE. ) );
#143 =( NAMED_UNIT ( * ) SI_UNIT ( $, .STERADIAN. ) SOLID_ANGLE_UNIT ( ) );
#144 = FACE_OUTER_BOUND ( 'NONE', #1001, .T. ) ;
#145 = COLOUR_RGB ( '',1.000000000000000000, 0.8117647058823529400, 0.5019607843137254800 ) ;
#146 = CARTESIAN_POINT ( 'NONE',  ( -4.900000000000001200, 0.0000000000000000000, -3.149999999999999900 ) ) ;
#147 = ADVANCED_FACE ( 'NONE', ( #952 ), #1062, .T. ) ;
#148 = EDGE_CURVE ( 'NONE', #1303, #1248, #1222, .T. ) ;
#149 = DIRECTION ( 'NONE',  ( 1.000000000000000000, 0.0000000000000000000, 0.0000000000000000000 ) ) ;
#150 = ORIENTED_EDGE ( 'NONE', *, *, #681, .F. ) ;
#151 = STYLED_ITEM ( 'NONE', ( #1219 ), #754 ) ;
#152 = DIRECTION ( 'NONE',  ( 1.000000000000000000, 0.0000000000000000000, -0.0000000000000000000 ) ) ;
#153 = ADVANCED_FACE ( 'NONE', ( #1257, #865 ), #595, .F. ) ;
#154 = ORIENTED_EDGE ( 'NONE', *, *, #894, .F. ) ;
#155 = CARTESIAN_POINT ( 'NONE',  ( -4.550000000000000700, 5.049999999999999800, 3.100000000000000500 ) ) ;
#156 = VECTOR ( 'NONE', #620, 1000.000000000000000 ) ;
#157 = CARTESIAN_POINT ( 'NONE',  ( -4.550000000000001600, 5.099999999999999600, -3.149999999999999900 ) ) ;
#158 =( GEOMETRIC_REPRESENTATION_CONTEXT ( 3 ) GLOBAL_UNCERTAINTY_ASSIGNED_CONTEXT ( ( #689 ) ) GLOBAL_UNIT_ASSIGNED_CONTEXT ( ( #1091, #502, #1199 ) ) REPRESENTATION_CONTEXT ( 'NONE', 'WORKASPACE' ) );
#159 = LINE ( 'NONE', #882, #1274 ) ;
#160 = DIRECTION ( 'NONE',  ( -1.000000000000000000, 0.0000000000000000000, 0.0000000000000000000 ) ) ;
#161 = DIRECTION ( 'NONE',  ( 0.0000000000000000000, 1.000000000000000000, 0.0000000000000000000 ) ) ;
#162 = LINE ( 'NONE', #100, #617 ) ;
#163 = VECTOR ( 'NONE', #212, 1000.000000000000000 ) ;
#164 = FACE_OUTER_BOUND ( 'NONE', #592, .T. ) ;
#165 = DIRECTION ( 'NONE',  ( 0.0000000000000000000, 0.0000000000000000000, 1.000000000000000000 ) ) ;
#166 = VERTEX_POINT ( 'NONE', #980 ) ;
#167 = FILL_AREA_STYLE_COLOUR ( '', #665 ) ;
#168 = VECTOR ( 'NONE', #654, 1000.000000000000000 ) ;
#169 = PRESENTATION_LAYER_ASSIGNMENT (  '', '', ( #676 ) ) ;
#170 = DIRECTION ( 'NONE',  ( 0.0000000000000000000, -0.0000000000000000000, -1.000000000000000000 ) ) ;
#171 = DIRECTION ( 'NONE',  ( 1.000000000000000000, 0.0000000000000000000, -0.0000000000000000000 ) ) ;
#172 = ORIENTED_EDGE ( 'NONE', *, *, #175, .T. ) ;
#173 = DIRECTION ( 'NONE',  ( 0.0000000000000000000, -0.0000000000000000000, -1.000000000000000000 ) ) ;
#174 = EDGE_LOOP ( 'NONE', ( #1193, #636, #832, #1108 ) ) ;
#175 = EDGE_CURVE ( 'NONE', #101, #243, #977, .T. ) ;
#176 = VECTOR ( 'NONE', #1016, 1000.000000000000000 ) ;
#177 = DIRECTION ( 'NONE',  ( 0.0000000000000000000, 0.0000000000000000000, 1.000000000000000000 ) ) ;
#178 = VECTOR ( 'NONE', #253, 1000.000000000000000 ) ;
#179 = VECTOR ( 'NONE', #621, 1000.000000000000000 ) ;
#180 = LINE ( 'NONE', #789, #1236 ) ;
#181 = EDGE_CURVE ( 'NONE', #915, #731, #721, .T. ) ;
#182 = ORIENTED_EDGE ( 'NONE', *, *, #348, .F. ) ;
#183 =( LENGTH_UNIT ( ) NAMED_UNIT ( * ) SI_UNIT ( .MILLI., .METRE. ) );
#184 = FACE_OUTER_BOUND ( 'NONE', #465, .T. ) ;
#185 = SURFACE_STYLE_USAGE ( .BOTH. , #410 ) ;
#186 = CARTESIAN_POINT ( 'NONE',  ( 4.900000000000000400, 0.05000000000000000300, 3.100000000000000500 ) ) ;
#187 = ORIENTED_EDGE ( 'NONE', *, *, #71, .T. ) ;
#188 = FILL_AREA_STYLE ('',( #1306 ) ) ;
#189 = ORIENTED_EDGE ( 'NONE', *, *, #1291, .T. ) ;
#190 =( GEOMETRIC_REPRESENTATION_CONTEXT ( 3 ) GLOBAL_UNCERTAINTY_ASSIGNED_CONTEXT ( ( #596 ) ) GLOBAL_UNIT_ASSIGNED_CONTEXT ( ( #767, #383, #864 ) ) REPRESENTATION_CONTEXT ( 'NONE', 'WORKASPACE' ) );
#191 =( GEOMETRIC_REPRESENTATION_CONTEXT ( 3 ) GLOBAL_UNCERTAINTY_ASSIGNED_CONTEXT ( ( #454 ) ) GLOBAL_UNIT_ASSIGNED_CONTEXT ( ( #137, #947, #668 ) ) REPRESENTATION_CONTEXT ( 'NONE', 'WORKASPACE' ) );
#192 = CARTESIAN_POINT ( 'NONE',  ( 4.900000000000000400, 5.049999999999999800, 3.100000000000000500 ) ) ;
#193 = DIRECTION ( 'NONE',  ( 1.000000000000000000, 0.0000000000000000000, 0.0000000000000000000 ) ) ;
#194 = VECTOR ( 'NONE', #796, 1000.000000000000000 ) ;
#195 = COLOUR_RGB ( '',0.7529411764705882200, 0.7529411764705882200, 0.7529411764705882200 ) ;
#196 = COLOUR_RGB ( '',1.000000000000000000, 0.8117647058823529400, 0.5019607843137254800 ) ;
#197 = FACE_BOUND ( 'NONE', #682, .T. ) ;
#198 = LINE ( 'NONE', #1297, #475 ) ;
#199 = AXIS2_PLACEMENT_3D ( 'NONE', #662, #656, #152 ) ;
#200 = CARTESIAN_POINT ( 'NONE',  ( 4.900000000000000400, 5.099999999999999600, 3.150000000000000400 ) ) ;
#201 = DIRECTION ( 'NONE',  ( -1.000000000000000000, 0.0000000000000000000, 0.0000000000000000000 ) ) ;
#202 = ORIENTED_EDGE ( 'NONE', *, *, #611, .T. ) ;
#203 = EDGE_CURVE ( 'NONE', #688, #326, #292, .T. ) ;
#204 = ORIENTED_EDGE ( 'NONE', *, *, #122, .F. ) ;
#205 = PLANE ( 'NONE',  #49 ) ;
#206 = DIRECTION ( 'NONE',  ( 0.0000000000000000000, 0.0000000000000000000, -1.000000000000000000 ) ) ;
#207 = MECHANICAL_DESIGN_GEOMETRIC_PRESENTATION_REPRESENTATION (  '', ( #1059 ), #158 ) ;
#208 = ORIENTED_EDGE ( 'NONE', *, *, #545, .F. ) ;
#209 = ORIENTED_EDGE ( 'NONE', *, *, #697, .F. ) ;
#210 =( NAMED_UNIT ( * ) SI_UNIT ( $, .STERADIAN. ) SOLID_ANGLE_UNIT ( ) );
#211 = EDGE_CURVE ( 'NONE', #1123, #1208, #489, .T. ) ;
#212 = DIRECTION ( 'NONE',  ( 0.0000000000000000000, 0.0000000000000000000, -1.000000000000000000 ) ) ;
#213 = MANIFOLD_SOLID_BREP ( 'Electrode 2', #1010 ) ;
#214 = VECTOR ( 'NONE', #1074, 1000.000000000000000 ) ;
#215 = UNCERTAINTY_MEASURE_WITH_UNIT (LENGTH_MEASURE( 1.000000000000000100E-005 ), #1084, 'distance_accuracy_value', 'NONE');
#216 = LINE ( 'NONE', #359, #708 ) ;
#217 = DIRECTION ( 'NONE',  ( 0.0000000000000000000, 1.000000000000000000, 0.0000000000000000000 ) ) ;
#218 = VECTOR ( 'NONE', #52, 1000.000000000000000 ) ;
#219 = LINE ( 'NONE', #97, #950 ) ;
#220 = DIRECTION ( 'NONE',  ( -0.0000000000000000000, -4.918255822766905200E-017, -1.000000000000000000 ) ) ;
#221 = ORIENTED_EDGE ( 'NONE', *, *, #297, .F. ) ;
#222 =( LENGTH_UNIT ( ) NAMED_UNIT ( * ) SI_UNIT ( .MILLI., .METRE. ) );
#223 =( NAMED_UNIT ( * ) SI_UNIT ( $, .STERADIAN. ) SOLID_ANGLE_UNIT ( ) );
#224 = ORIENTED_EDGE ( 'NONE', *, *, #1160, .F. ) ;
#225 = EDGE_CURVE ( 'NONE', #800, #102, #219, .T. ) ;
#226 = VECTOR ( 'NONE', #1225, 1000.000000000000000 ) ;
#227 = CARTESIAN_POINT ( 'NONE',  ( -4.900000000000000400, 0.05000000000000000300, 3.100000000000000500 ) ) ;
#228 = FILL_AREA_STYLE ('',( #826 ) ) ;
#229 = ORIENTED_EDGE ( 'NONE', *, *, #940, .F. ) ;
#230 = ORIENTED_EDGE ( 'NONE', *, *, #129, .F. ) ;
#231 = PRESENTATION_LAYER_ASSIGNMENT (  '', '', ( #151 ) ) ;
#232 = ORIENTED_EDGE ( 'NONE', *, *, #129, .T. ) ;
#233 = LINE ( 'NONE', #24, #484 ) ;
#234 = DIRECTION ( 'NONE',  ( 0.0000000000000000000, 1.000000000000000000, 0.0000000000000000000 ) ) ;
#235 = LINE ( 'NONE', #792, #460 ) ;
#236 = DIRECTION ( 'NONE',  ( 0.0000000000000000000, 0.0000000000000000000, -1.000000000000000000 ) ) ;
#237 = ADVANCED_FACE ( 'NONE', ( #164 ), #879, .F. ) ;
#238 =( NAMED_UNIT ( * ) PLANE_ANGLE_UNIT ( ) SI_UNIT ( $, .RADIAN. ) );
#239 = MECHANICAL_DESIGN_GEOMETRIC_PRESENTATION_REPRESENTATION (  '', ( #740 ), #190 ) ;
#240 = CARTESIAN_POINT ( 'NONE',  ( -4.900000000000001200, 5.049999999999999800, 3.100000000000000500 ) ) ;
#241 = COLOUR_RGB ( '',1.000000000000000000, 0.8117647058823529400, 0.5019607843137254800 ) ;
#242 = ADVANCED_FACE ( 'NONE', ( #333 ), #810, .F. ) ;
#243 = VERTEX_POINT ( 'NONE', #698 ) ;
#244 = DIRECTION ( 'NONE',  ( -1.000000000000000000, 0.0000000000000000000, 0.0000000000000000000 ) ) ;
#245 = ORIENTED_EDGE ( 'NONE', *, *, #495, .F. ) ;
#246 = PLANE ( 'NONE',  #461 ) ;
#247 = VECTOR ( 'NONE', #896, 1000.000000000000000 ) ;
#248 = MECHANICAL_DESIGN_GEOMETRIC_PRESENTATION_REPRESENTATION (  '', ( #676 ), #638 ) ;
#249 = ADVANCED_FACE ( 'NONE', ( #428 ), #616, .T. ) ;
#250 = LINE ( 'NONE', #1021, #488 ) ;
#251 = EDGE_CURVE ( 'NONE', #1215, #631, #923, .T. ) ;
#252 = LINE ( 'NONE', #716, #906 ) ;
#253 = DIRECTION ( 'NONE',  ( 0.0000000000000000000, 0.0000000000000000000, -1.000000000000000000 ) ) ;
#254 = DIRECTION ( 'NONE',  ( 0.0000000000000000000, 0.0000000000000000000, -1.000000000000000000 ) ) ;
#255 = EDGE_LOOP ( 'NONE', ( #432, #296, #850, #961 ) ) ;
#256 = DIRECTION ( 'NONE',  ( 1.000000000000000000, 0.0000000000000000000, -0.0000000000000000000 ) ) ;
#257 = MANIFOLD_SOLID_BREP ( 'Electrode 1', #874 ) ;
#258 = CARTESIAN_POINT ( 'NONE',  ( 4.550000000000001600, 5.099999999999999600, -3.149999999999999900 ) ) ;
#259 = EDGE_CURVE ( 'NONE', #663, #113, #877, .T. ) ;
#260 = UNCERTAINTY_MEASURE_WITH_UNIT (LENGTH_MEASURE( 1.000000000000000100E-005 ), #14, 'distance_accuracy_value', 'NONE');
#261 = DIRECTION ( 'NONE',  ( 0.0000000000000000000, 0.0000000000000000000, -1.000000000000000000 ) ) ;
#262 = EDGE_LOOP ( 'NONE', ( #221, #1064, #560, #172 ) ) ;
#263 = DIRECTION ( 'NONE',  ( 0.0000000000000000000, -0.0000000000000000000, 1.000000000000000000 ) ) ;
#264 = ORIENTED_EDGE ( 'NONE', *, *, #748, .T. ) ;
#265 = ORIENTED_EDGE ( 'NONE', *, *, #181, .T. ) ;
#266 = CARTESIAN_POINT ( 'NONE',  ( 4.550000000000001600, 5.049999999999999800, 3.100000000000000500 ) ) ;
#267 = ADVANCED_FACE ( 'NONE', ( #935 ), #205, .T. ) ;
#268 = VECTOR ( 'NONE', #89, 1000.000000000000000 ) ;
#269 = CARTESIAN_POINT ( 'NONE',  ( 4.550000000000000700, 0.05000000000000000300, -3.100000000000000100 ) ) ;
#270 = LINE ( 'NONE', #240, #57 ) ;
#271 = PRODUCT_DEFINITION ( 'UNKNOWN', '', #671, #722 ) ;
#272 = EDGE_CURVE ( 'NONE', #563, #284, #77, .T. ) ;
#273 = PLANE ( 'NONE',  #593 ) ;
#274 = FILL_AREA_STYLE_COLOUR ( '', #195 ) ;
#275 = VERTEX_POINT ( 'NONE', #307 ) ;
#276 = ORIENTED_EDGE ( 'NONE', *, *, #1291, .F. ) ;
#277 =( GEOMETRIC_REPRESENTATION_CONTEXT ( 3 ) GLOBAL_UNCERTAINTY_ASSIGNED_CONTEXT ( ( #1046 ) ) GLOBAL_UNIT_ASSIGNED_CONTEXT ( ( #818, #999, #715 ) ) REPRESENTATION_CONTEXT ( 'NONE', 'WORKASPACE' ) );
#278 = CARTESIAN_POINT ( 'NONE',  ( -4.550000000000000700, 0.0000000000000000000, 3.150000000000000400 ) ) ;
#279 = SURFACE_SIDE_STYLE ('',( #1254 ) ) ;
#280 = CARTESIAN_POINT ( 'NONE',  ( 4.550000000000000700, 5.099999999999999600, 3.150000000000000400 ) ) ;
#281 = LINE ( 'NONE', #640, #898 ) ;
#282 =( NAMED_UNIT ( * ) SI_UNIT ( $, .STERADIAN. ) SOLID_ANGLE_UNIT ( ) );
#283 = EDGE_CURVE ( 'NONE', #166, #581, #162, .T. ) ;
#284 = VERTEX_POINT ( 'NONE', #507 ) ;
#285 = ORIENTED_EDGE ( 'NONE', *, *, #175, .F. ) ;
#286 = AXIS2_PLACEMENT_3D ( 'NONE', #904, #506, #998 ) ;
#287 = SURFACE_STYLE_FILL_AREA ( #7 ) ;
#288 = STYLED_ITEM ( 'NONE', ( #128 ), #552 ) ;
#289 =( NAMED_UNIT ( * ) SI_UNIT ( $, .STERADIAN. ) SOLID_ANGLE_UNIT ( ) );
#290 = CARTESIAN_POINT ( 'NONE',  ( -4.550000000000000700, 5.099999999999999600, -3.149999999999999900 ) ) ;
#291 = VECTOR ( 'NONE', #149, 1000.000000000000000 ) ;
#292 = LINE ( 'NONE', #1187, #131 ) ;
#293 = EDGE_CURVE ( 'NONE', #363, #364, #1204, .T. ) ;
#294 = CARTESIAN_POINT ( 'NONE',  ( 4.900000000000001200, 0.04999999999999969700, -3.100000000000000100 ) ) ;
#295 = VERTEX_POINT ( 'NONE', #1104 ) ;
#296 = ORIENTED_EDGE ( 'NONE', *, *, #297, .T. ) ;
#297 = EDGE_CURVE ( 'NONE', #364, #243, #349, .T. ) ;
#298 = ORIENTED_EDGE ( 'NONE', *, *, #390, .F. ) ;
#299 = DIRECTION ( 'NONE',  ( 0.0000000000000000000, -1.000000000000000000, 0.0000000000000000000 ) ) ;
#300 = DIRECTION ( 'NONE',  ( 0.0000000000000000000, -0.0000000000000000000, 1.000000000000000000 ) ) ;
#301 = LINE ( 'NONE', #976, #632 ) ;
#302 = PRESENTATION_LAYER_ASSIGNMENT (  '', '', ( #1119 ) ) ;
#303 =( NAMED_UNIT ( * ) SI_UNIT ( $, .STERADIAN. ) SOLID_ANGLE_UNIT ( ) );
#304 = SURFACE_SIDE_STYLE ('',( #287 ) ) ;
#305 = FACE_OUTER_BOUND ( 'NONE', #481, .T. ) ;
#306 = EDGE_CURVE ( 'NONE', #731, #284, #756, .T. ) ;
#307 = CARTESIAN_POINT ( 'NONE',  ( 4.550000000000001600, 5.099999999999999600, 3.150000000000000400 ) ) ;
#308 = FILL_AREA_STYLE_COLOUR ( '', #1289 ) ;
#309 = DIRECTION ( 'NONE',  ( 1.000000000000000000, 0.0000000000000000000, 0.0000000000000000000 ) ) ;
#310 = FILL_AREA_STYLE ('',( #315 ) ) ;
#311 = CARTESIAN_POINT ( 'NONE',  ( 4.900000000000001200, 0.0000000000000000000, 0.0000000000000000000 ) ) ;
#312 = ORIENTED_EDGE ( 'NONE', *, *, #572, .T. ) ;
#313 = VERTEX_POINT ( 'NONE', #633 ) ;
#314 = COLOUR_RGB ( '',1.000000000000000000, 0.8117647058823529400, 0.5019607843137254800 ) ;
#315 = FILL_AREA_STYLE_COLOUR ( '', #145 ) ;
#316 = FACE_OUTER_BOUND ( 'NONE', #869, .T. ) ;
#317 = LINE ( 'NONE', #949, #411 ) ;
#318 = STYLED_ITEM ( 'NONE', ( #1 ), #1247 ) ;
#319 = UNCERTAINTY_MEASURE_WITH_UNIT (LENGTH_MEASURE( 1.000000000000000100E-005 ), #392, 'distance_accuracy_value', 'NONE');
#320 = DIRECTION ( 'NONE',  ( 0.0000000000000000000, 1.000000000000000000, 0.0000000000000000000 ) ) ;
#321 = COLOUR_RGB ( '',0.7529411764705882200, 0.7529411764705882200, 0.7529411764705882200 ) ;
#322 =( NAMED_UNIT ( * ) PLANE_ANGLE_UNIT ( ) SI_UNIT ( $, .RADIAN. ) );
#323 =( GEOMETRIC_REPRESENTATION_CONTEXT ( 3 ) GLOBAL_UNCERTAINTY_ASSIGNED_CONTEXT ( ( #319 ) ) GLOBAL_UNIT_ASSIGNED_CONTEXT ( ( #392, #72, #289 ) ) REPRESENTATION_CONTEXT ( 'NONE', 'WORKASPACE' ) );
#324 = VECTOR ( 'NONE', #774, 1000.000000000000000 ) ;
#325 = CARTESIAN_POINT ( 'NONE',  ( -4.550000000000001600, 0.0000000000000000000, -3.149999999999999900 ) ) ;
#326 = VERTEX_POINT ( 'NONE', #429 ) ;
#327 = VERTEX_POINT ( 'NONE', #1218 ) ;
#328 = DIRECTION ( 'NONE',  ( -0.0000000000000000000, 0.0000000000000000000, -1.000000000000000000 ) ) ;
#329 = CARTESIAN_POINT ( 'NONE',  ( 4.550000000000000700, 0.0000000000000000000, 3.150000000000000400 ) ) ;
#330 = ORIENTED_EDGE ( 'NONE', *, *, #760, .F. ) ;
#331 = EDGE_CURVE ( 'NONE', #113, #955, #1294, .T. ) ;
#332 =( GEOMETRIC_REPRESENTATION_CONTEXT ( 3 ) GLOBAL_UNCERTAINTY_ASSIGNED_CONTEXT ( ( #215 ) ) GLOBAL_UNIT_ASSIGNED_CONTEXT ( ( #1084, #895, #1311 ) ) REPRESENTATION_CONTEXT ( 'NONE', 'WORKASPACE' ) );
#333 = FACE_OUTER_BOUND ( 'NONE', #174, .T. ) ;
#334 = LINE ( 'NONE', #500, #660 ) ;
#335 = ORIENTED_EDGE ( 'NONE', *, *, #259, .F. ) ;
#336 = CARTESIAN_POINT ( 'NONE',  ( -4.550000000000001600, 0.0000000000000000000, 3.150000000000000400 ) ) ;
#337 = STYLED_ITEM ( 'NONE', ( #41 ), #44 ) ;
#338 =( GEOMETRIC_REPRESENTATION_CONTEXT ( 3 ) GLOBAL_UNCERTAINTY_ASSIGNED_CONTEXT ( ( #529 ) ) GLOBAL_UNIT_ASSIGNED_CONTEXT ( ( #183, #2, #303 ) ) REPRESENTATION_CONTEXT ( 'NONE', 'WORKASPACE' ) );
#339 = LINE ( 'NONE', #453, #63 ) ;
#340 = CARTESIAN_POINT ( 'NONE',  ( 4.550000000000001600, 5.049999999999999800, 3.100000000000000500 ) ) ;
#341 = ORIENTED_EDGE ( 'NONE', *, *, #641, .T. ) ;
#342 = UNCERTAINTY_MEASURE_WITH_UNIT (LENGTH_MEASURE( 1.000000000000000100E-005 ), #1233, 'distance_accuracy_value', 'NONE');
#343 = ORIENTED_EDGE ( 'NONE', *, *, #420, .T. ) ;
#344 = PRESENTATION_STYLE_ASSIGNMENT (( #927 ) ) ;
#345 = DIRECTION ( 'NONE',  ( 1.000000000000000000, 0.0000000000000000000, 0.0000000000000000000 ) ) ;
#346 = ADVANCED_FACE ( 'NONE', ( #513 ), #985, .T. ) ;
#347 = VECTOR ( 'NONE', #1188, 1000.000000000000000 ) ;
#348 = EDGE_CURVE ( 'NONE', #884, #1164, #74, .T. ) ;
#349 = LINE ( 'NONE', #711, #934 ) ;
#350 = LINE ( 'NONE', #650, #179 ) ;
#351 = FILL_AREA_STYLE ('',( #1242 ) ) ;
#352 = MECHANICAL_DESIGN_GEOMETRIC_PRESENTATION_REPRESENTATION (  '', ( #288 ), #1128 ) ;
#353 =( NAMED_UNIT ( * ) SI_UNIT ( $, .STERADIAN. ) SOLID_ANGLE_UNIT ( ) );
#354 = EDGE_LOOP ( 'NONE', ( #1079, #954, #536, #1262 ) ) ;
#355 = ADVANCED_FACE ( 'NONE', ( #997 ), #12, .F. ) ;
#356 = ORIENTED_EDGE ( 'NONE', *, *, #769, .F. ) ;
#357 = CARTESIAN_POINT ( 'NONE',  ( 4.550000000000001600, 0.0000000000000000000, 3.150000000000000400 ) ) ;
#358 = CARTESIAN_POINT ( 'NONE',  ( 4.550000000000001600, 0.0000000000000000000, 0.0000000000000000000 ) ) ;
#359 = CARTESIAN_POINT ( 'NONE',  ( 4.900000000000000400, 5.049999999999999800, -3.100000000000000100 ) ) ;
#360 = ORIENTED_EDGE ( 'NONE', *, *, #926, .F. ) ;
#361 = CARTESIAN_POINT ( 'NONE',  ( -4.900000000000001200, 5.049999999999999800, -3.100000000000000100 ) ) ;
#362 = ADVANCED_FACE ( 'NONE', ( #1043 ), #1125, .F. ) ;
#363 = VERTEX_POINT ( 'NONE', #1224 ) ;
#364 = VERTEX_POINT ( 'NONE', #18 ) ;
#365 = DIRECTION ( 'NONE',  ( 0.0000000000000000000, -0.0000000000000000000, -1.000000000000000000 ) ) ;
#366 = EDGE_CURVE ( 'NONE', #140, #525, #250, .T. ) ;
#367 = SURFACE_STYLE_USAGE ( .BOTH. , #279 ) ;
#368 = ADVANCED_FACE ( 'NONE', ( #1253 ), #1163, .T. ) ;
#369 = STYLED_ITEM ( 'NONE', ( #344 ), #1137 ) ;
#370 = CARTESIAN_POINT ( 'NONE',  ( 4.550000000000001600, 5.049999999999999800, -3.100000000000000100 ) ) ;
#371 = DIRECTION ( 'NONE',  ( -1.000000000000000000, -0.0000000000000000000, -0.0000000000000000000 ) ) ;
#372 = EDGE_CURVE ( 'NONE', #275, #663, #474, .T. ) ;
#373 = DIRECTION ( 'NONE',  ( -1.000000000000000000, 0.0000000000000000000, 0.0000000000000000000 ) ) ;
#374 = CARTESIAN_POINT ( 'NONE',  ( 4.550000000000000700, 0.05000000000000000300, 3.100000000000000500 ) ) ;
#375 = ORIENTED_EDGE ( 'NONE', *, *, #697, .T. ) ;
#376 = ORIENTED_EDGE ( 'NONE', *, *, #565, .T. ) ;
#377 =( NAMED_UNIT ( * ) PLANE_ANGLE_UNIT ( ) SI_UNIT ( $, .RADIAN. ) );
#378 = COLOUR_RGB ( '',0.7529411764705882200, 0.7529411764705882200, 0.7529411764705882200 ) ;
#379 = PLANE ( 'NONE',  #1310 ) ;
#380 = LINE ( 'NONE', #1197, #104 ) ;
#381 = SURFACE_STYLE_FILL_AREA ( #964 ) ;
#382 = VECTOR ( 'NONE', #723, 1000.000000000000000 ) ;
#383 =( NAMED_UNIT ( * ) PLANE_ANGLE_UNIT ( ) SI_UNIT ( $, .RADIAN. ) );
#384 = CARTESIAN_POINT ( 'NONE',  ( -4.900000000000001200, 5.099999999999999600, 3.150000000000000400 ) ) ;
#385 = ORIENTED_EDGE ( 'NONE', *, *, #487, .F. ) ;
#386 =( GEOMETRIC_REPRESENTATION_CONTEXT ( 3 ) GLOBAL_UNCERTAINTY_ASSIGNED_CONTEXT ( ( #725 ) ) GLOBAL_UNIT_ASSIGNED_CONTEXT ( ( #142, #946, #1258 ) ) REPRESENTATION_CONTEXT ( 'NONE', 'WORKASPACE' ) );
#387 = CARTESIAN_POINT ( 'NONE',  ( -4.550000000000001600, 0.0000000000000000000, 3.150000000000000400 ) ) ;
#388 = LINE ( 'NONE', #157, #1263 ) ;
#389 = ORIENTED_EDGE ( 'NONE', *, *, #878, .T. ) ;
#390 = EDGE_CURVE ( 'NONE', #840, #563, #25, .T. ) ;
#391 = ORIENTED_EDGE ( 'NONE', *, *, #1153, .F. ) ;
#392 =( LENGTH_UNIT ( ) NAMED_UNIT ( * ) SI_UNIT ( .MILLI., .METRE. ) );
#393 = ORIENTED_EDGE ( 'NONE', *, *, #803, .T. ) ;
#394 = VECTOR ( 'NONE', #612, 1000.000000000000000 ) ;
#395 = MECHANICAL_DESIGN_GEOMETRIC_PRESENTATION_REPRESENTATION (  '', ( #151 ), #615 ) ;
#396 = DIRECTION ( 'NONE',  ( 1.000000000000000000, 0.0000000000000000000, 0.0000000000000000000 ) ) ;
#397 = EDGE_CURVE ( 'NONE', #295, #1215, #216, .T. ) ;
#398 = CARTESIAN_POINT ( 'NONE',  ( -4.550000000000001600, 0.0000000000000000000, -3.149999999999999900 ) ) ;
#399 = VERTEX_POINT ( 'NONE', #790 ) ;
#400 = VECTOR ( 'NONE', #244, 1000.000000000000000 ) ;
#401 = FILL_AREA_STYLE ('',( #1207 ) ) ;
#402 = SURFACE_STYLE_USAGE ( .BOTH. , #304 ) ;
#403 = SURFACE_STYLE_USAGE ( .BOTH. , #897 ) ;
#404 =( GEOMETRIC_REPRESENTATION_CONTEXT ( 3 ) GLOBAL_UNCERTAINTY_ASSIGNED_CONTEXT ( ( #1011 ) ) GLOBAL_UNIT_ASSIGNED_CONTEXT ( ( #1284, #377, #282 ) ) REPRESENTATION_CONTEXT ( 'NONE', 'WORKASPACE' ) );
#405 = ORIENTED_EDGE ( 'NONE', *, *, #1047, .T. ) ;
#406 = AXIS2_PLACEMENT_3D ( 'NONE', #559, #373, #261 ) ;
#407 = CARTESIAN_POINT ( 'NONE',  ( -4.550000000000000700, 0.05000000000000000300, -3.100000000000000100 ) ) ;
#408 = VECTOR ( 'NONE', #1202, 1000.000000000000000 ) ;
#409 = PRESENTATION_STYLE_ASSIGNMENT (( #425 ) ) ;
#410 = SURFACE_SIDE_STYLE ('',( #1044 ) ) ;
#411 = VECTOR ( 'NONE', #765, 1000.000000000000000 ) ;
#412 = PRESENTATION_LAYER_ASSIGNMENT (  '', '', ( #337 ) ) ;
#413 = ORIENTED_EDGE ( 'NONE', *, *, #71, .F. ) ;
#414 = SURFACE_STYLE_USAGE ( .BOTH. , #805 ) ;
#415 = DIRECTION ( 'NONE',  ( 0.0000000000000000000, 0.0000000000000000000, -1.000000000000000000 ) ) ;
#416 = SURFACE_STYLE_FILL_AREA ( #942 ) ;
#417 = SURFACE_STYLE_USAGE ( .BOTH. , #1120 ) ;
#418 = DIRECTION ( 'NONE',  ( -1.000000000000000000, 0.0000000000000000000, 0.0000000000000000000 ) ) ;
#419 = ORIENTED_EDGE ( 'NONE', *, *, #293, .T. ) ;
#420 = EDGE_CURVE ( 'NONE', #140, #1215, #301, .T. ) ;
#421 = FILL_AREA_STYLE_COLOUR ( '', #891 ) ;
#422 = EDGE_LOOP ( 'NONE', ( #276, #510, #393, #438 ) ) ;
#423 = FACE_BOUND ( 'NONE', #1238, .T. ) ;
#424 = LINE ( 'NONE', #694, #268 ) ;
#425 = SURFACE_STYLE_USAGE ( .BOTH. , #1015 ) ;
#426 = CARTESIAN_POINT ( 'NONE',  ( -4.900000000000001200, 5.099999999999999600, 3.150000000000000400 ) ) ;
#427 = FACE_OUTER_BOUND ( 'NONE', #570, .T. ) ;
#428 = FACE_OUTER_BOUND ( 'NONE', #28, .T. ) ;
#429 = CARTESIAN_POINT ( 'NONE',  ( 4.900000000000001200, 5.049999999999999800, -3.100000000000000100 ) ) ;
#430 = VECTOR ( 'NONE', #490, 1000.000000000000000 ) ;
#431 = DIRECTION ( 'NONE',  ( 1.000000000000000000, 0.0000000000000000000, 0.0000000000000000000 ) ) ;
#432 = ORIENTED_EDGE ( 'NONE', *, *, #1246, .T. ) ;
#433 = EDGE_CURVE ( 'NONE', #166, #733, #471, .T. ) ;
#434 = ORIENTED_EDGE ( 'NONE', *, *, #93, .F. ) ;
#435 = CARTESIAN_POINT ( 'NONE',  ( 4.900000000000001200, 0.0000000000000000000, 3.150000000000000400 ) ) ;
#436 = SURFACE_STYLE_FILL_AREA ( #351 ) ;
#437 =( GEOMETRIC_REPRESENTATION_CONTEXT ( 3 ) GLOBAL_UNCERTAINTY_ASSIGNED_CONTEXT ( ( #342 ) ) GLOBAL_UNIT_ASSIGNED_CONTEXT ( ( #1233, #1033, #223 ) ) REPRESENTATION_CONTEXT ( 'NONE', 'WORKASPACE' ) );
#438 = ORIENTED_EDGE ( 'NONE', *, *, #487, .T. ) ;
#439 = DIRECTION ( 'NONE',  ( 0.0000000000000000000, 0.0000000000000000000, -1.000000000000000000 ) ) ;
#440 = ADVANCED_FACE ( 'NONE', ( #144 ), #91, .T. ) ;
#441 = ORIENTED_EDGE ( 'NONE', *, *, #990, .F. ) ;
#442 = VECTOR ( 'NONE', #201, 1000.000000000000000 ) ;
#443 = SURFACE_STYLE_USAGE ( .BOTH. , #747 ) ;
#444 = COLOUR_RGB ( '',0.7529411764705882200, 0.7529411764705882200, 0.7529411764705882200 ) ;
#445 = CARTESIAN_POINT ( 'NONE',  ( 4.550000000000000700, 0.05000000000000000300, 3.100000000000000500 ) ) ;
#446 = DIRECTION ( 'NONE',  ( 0.0000000000000000000, -1.000000000000000000, 0.0000000000000000000 ) ) ;
#447 = PRESENTATION_LAYER_ASSIGNMENT (  '', '', ( #804 ) ) ;
#448 = ADVANCED_FACE ( 'NONE', ( #921 ), #95, .F. ) ;
#449 = VERTEX_POINT ( 'NONE', #280 ) ;
#450 = CARTESIAN_POINT ( 'NONE',  ( 4.550000000000001600, 0.04999999999999969700, -3.100000000000000100 ) ) ;
#451 = AXIS2_PLACEMENT_3D ( 'NONE', #841, #236, #932 ) ;
#452 = EDGE_LOOP ( 'NONE', ( #930, #264, #413, #245 ) ) ;
#453 = CARTESIAN_POINT ( 'NONE',  ( -4.900000000000000400, 5.049999999999999800, -3.100000000000000100 ) ) ;
#454 = UNCERTAINTY_MEASURE_WITH_UNIT (LENGTH_MEASURE( 1.000000000000000100E-005 ), #137, 'distance_accuracy_value', 'NONE');
#455 = FILL_AREA_STYLE_COLOUR ( '', #1105 ) ;
#456 = DIRECTION ( 'NONE',  ( 0.0000000000000000000, 0.0000000000000000000, -1.000000000000000000 ) ) ;
#457 = LINE ( 'NONE', #627, #776 ) ;
#458 = VECTOR ( 'NONE', #1003, 1000.000000000000000 ) ;
#459 = FILL_AREA_STYLE_COLOUR ( '', #685 ) ;
#460 = VECTOR ( 'NONE', #873, 1000.000000000000000 ) ;
#461 = AXIS2_PLACEMENT_3D ( 'NONE', #561, #1255, #1050 ) ;
#462 = FILL_AREA_STYLE ('',( #1166 ) ) ;
#463 = CARTESIAN_POINT ( 'NONE',  ( 4.550000000000001600, 5.099999999999999600, 3.150000000000000400 ) ) ;
#464 = APPLICATION_PROTOCOL_DEFINITION ( 'draft international standard', 'automotive_design', 1998, #70 ) ;
#465 = EDGE_LOOP ( 'NONE', ( #908, #229, #710, #499 ) ) ;
#466 = DIRECTION ( 'NONE',  ( 1.000000000000000000, 0.0000000000000000000, 0.0000000000000000000 ) ) ;
#467 = ORIENTED_EDGE ( 'NONE', *, *, #211, .F. ) ;
#468 = CARTESIAN_POINT ( 'NONE',  ( 4.900000000000001200, 0.0000000000000000000, -3.149999999999999900 ) ) ;
#469 =( LENGTH_UNIT ( ) NAMED_UNIT ( * ) SI_UNIT ( .MILLI., .METRE. ) );
#470 = LINE ( 'NONE', #1113, #1200 ) ;
#471 = LINE ( 'NONE', #591, #194 ) ;
#472 = EDGE_CURVE ( 'NONE', #399, #295, #334, .T. ) ;
#473 = SURFACE_SIDE_STYLE ('',( #381 ) ) ;
#474 = LINE ( 'NONE', #48, #178 ) ;
#475 = VECTOR ( 'NONE', #686, 1000.000000000000000 ) ;
#476 = DIRECTION ( 'NONE',  ( 0.0000000000000000000, -1.000000000000000000, 0.0000000000000000000 ) ) ;
#477 = EDGE_LOOP ( 'NONE', ( #845, #1124, #1223, #992 ) ) ;
#478 =( NAMED_UNIT ( * ) SI_UNIT ( $, .STERADIAN. ) SOLID_ANGLE_UNIT ( ) );
#479 = MECHANICAL_DESIGN_GEOMETRIC_PRESENTATION_REPRESENTATION (  '', ( #337 ), #323 ) ;
#480 = CARTESIAN_POINT ( 'NONE',  ( 4.550000000000000700, 5.049999999999999800, -3.100000000000000100 ) ) ;
#481 = EDGE_LOOP ( 'NONE', ( #1157, #154, #542, #589 ) ) ;
#482 = MECHANICAL_DESIGN_GEOMETRIC_PRESENTATION_REPRESENTATION (  '', ( #1245 ), #1241 ) ;
#483 = ORIENTED_EDGE ( 'NONE', *, *, #1087, .F. ) ;
#484 = VECTOR ( 'NONE', #1023, 1000.000000000000000 ) ;
#485 = CARTESIAN_POINT ( 'NONE',  ( 4.550000000000000700, 5.099999999999999600, 3.150000000000000400 ) ) ;
#486 = VECTOR ( 'NONE', #396, 1000.000000000000000 ) ;
#487 = EDGE_CURVE ( 'NONE', #327, #858, #159, .T. ) ;
#488 = VECTOR ( 'NONE', #629, 1000.000000000000000 ) ;
#489 = LINE ( 'NONE', #398, #458 ) ;
#490 = DIRECTION ( 'NONE',  ( 0.0000000000000000000, 0.0000000000000000000, -1.000000000000000000 ) ) ;
#491 = DIRECTION ( 'NONE',  ( 0.0000000000000000000, -0.0000000000000000000, 1.000000000000000000 ) ) ;
#492 = DIRECTION ( 'NONE',  ( 0.0000000000000000000, -1.000000000000000000, 0.0000000000000000000 ) ) ;
#493 = PLANE ( 'NONE',  #798 ) ;
#494 =( GEOMETRIC_REPRESENTATION_CONTEXT ( 3 ) GLOBAL_UNCERTAINTY_ASSIGNED_CONTEXT ( ( #773 ) ) GLOBAL_UNIT_ASSIGNED_CONTEXT ( ( #854, #238, #658 ) ) REPRESENTATION_CONTEXT ( 'NONE', 'WORKASPACE' ) );
#495 = EDGE_CURVE ( 'NONE', #102, #449, #1135, .T. ) ;
#496 = EDGE_LOOP ( 'NONE', ( #312, #69, #670, #92 ) ) ;
#497 = DIRECTION ( 'NONE',  ( 0.0000000000000000000, 0.0000000000000000000, 1.000000000000000000 ) ) ;
#498 = CARTESIAN_POINT ( 'NONE',  ( -4.550000000000001600, 0.04999999999999969700, -3.100000000000000100 ) ) ;
#499 = ORIENTED_EDGE ( 'NONE', *, *, #122, .T. ) ;
#500 = CARTESIAN_POINT ( 'NONE',  ( 4.900000000000000400, 0.05000000000000000300, -3.100000000000000100 ) ) ;
#501 = ORIENTED_EDGE ( 'NONE', *, *, #635, .F. ) ;
#502 =( NAMED_UNIT ( * ) PLANE_ANGLE_UNIT ( ) SI_UNIT ( $, .RADIAN. ) );
#503 = VECTOR ( 'NONE', #1201, 1000.000000000000000 ) ;
#504 = LINE ( 'NONE', #960, #218 ) ;
#505 = LINE ( 'NONE', #468, #837 ) ;
#506 = DIRECTION ( 'NONE',  ( 0.0000000000000000000, 1.000000000000000000, 0.0000000000000000000 ) ) ;
#507 = CARTESIAN_POINT ( 'NONE',  ( -4.900000000000000400, 0.05000000000000000300, -3.100000000000000100 ) ) ;
#508 = CARTESIAN_POINT ( 'NONE',  ( 4.550000000000000700, 0.0000000000000000000, 0.0000000000000000000 ) ) ;
#509 = VERTEX_POINT ( 'NONE', #1009 ) ;
#510 = ORIENTED_EDGE ( 'NONE', *, *, #203, .F. ) ;
#511 = CARTESIAN_POINT ( 'NONE',  ( -4.550000000000000700, 5.099999999999999600, 3.150000000000000400 ) ) ;
#512 = PRESENTATION_LAYER_ASSIGNMENT (  '', '', ( #1165 ) ) ;
#513 = FACE_OUTER_BOUND ( 'NONE', #5, .T. ) ;
#514 = FILL_AREA_STYLE_COLOUR ( '', #1018 ) ;
#515 =( LENGTH_UNIT ( ) NAMED_UNIT ( * ) SI_UNIT ( .MILLI., .METRE. ) );
#516 = CARTESIAN_POINT ( 'NONE',  ( 4.900000000000001200, 5.099999999999999600, 3.150000000000000400 ) ) ;
#517 = SURFACE_STYLE_FILL_AREA ( #462 ) ;
#518 = DIRECTION ( 'NONE',  ( 0.0000000000000000000, 1.000000000000000000, 0.0000000000000000000 ) ) ;
#519 = STYLED_ITEM ( 'NONE', ( #36 ), #763 ) ;
#520 = PRESENTATION_STYLE_ASSIGNMENT (( #666 ) ) ;
#521 = LINE ( 'NONE', #435, #610 ) ;
#522 = DIRECTION ( 'NONE',  ( -1.000000000000000000, 0.0000000000000000000, 0.0000000000000000000 ) ) ;
#523 = CARTESIAN_POINT ( 'NONE',  ( -4.550000000000001600, 5.099999999999999600, -3.149999999999999900 ) ) ;
#524 = VERTEX_POINT ( 'NONE', #1097 ) ;
#525 = VERTEX_POINT ( 'NONE', #1107 ) ;
#526 = LINE ( 'NONE', #1068, #1290 ) ;
#527 =( NAMED_UNIT ( * ) PLANE_ANGLE_UNIT ( ) SI_UNIT ( $, .RADIAN. ) );
#528 = SURFACE_SIDE_STYLE ('',( #1069 ) ) ;
#529 = UNCERTAINTY_MEASURE_WITH_UNIT (LENGTH_MEASURE( 1.000000000000000100E-005 ), #183, 'distance_accuracy_value', 'NONE');
#530 = VECTOR ( 'NONE', #1017, 1000.000000000000000 ) ;
#531 = VECTOR ( 'NONE', #456, 1000.000000000000000 ) ;
#532 = LINE ( 'NONE', #516, #163 ) ;
#533 = CARTESIAN_POINT ( 'NONE',  ( -4.550000000000001600, 0.0000000000000000000, -3.149999999999999900 ) ) ;
#534 = VERTEX_POINT ( 'NONE', #801 ) ;
#535 = EDGE_CURVE ( 'NONE', #534, #110, #1307, .T. ) ;
#536 = ORIENTED_EDGE ( 'NONE', *, *, #366, .T. ) ;
#537 = SURFACE_SIDE_STYLE ('',( #15 ) ) ;
#538 = ADVANCED_FACE ( 'NONE', ( #1154 ), #1000, .T. ) ;
#539 = LINE ( 'NONE', #675, #1075 ) ;
#540 =( NAMED_UNIT ( * ) PLANE_ANGLE_UNIT ( ) SI_UNIT ( $, .RADIAN. ) );
#541 = VECTOR ( 'NONE', #254, 1000.000000000000000 ) ;
#542 = ORIENTED_EDGE ( 'NONE', *, *, #433, .F. ) ;
#543 = ORIENTED_EDGE ( 'NONE', *, *, #978, .F. ) ;
#544 = CARTESIAN_POINT ( 'NONE',  ( 0.0000000000000000000, 5.099999999999999600, 0.0000000000000000000 ) ) ;
#545 = EDGE_CURVE ( 'NONE', #534, #966, #118, .T. ) ;
#546 = DIRECTION ( 'NONE',  ( 0.0000000000000000000, 0.0000000000000000000, -1.000000000000000000 ) ) ;
#547 = FACE_OUTER_BOUND ( 'NONE', #354, .T. ) ;
#548 = AXIS2_PLACEMENT_3D ( 'NONE', #450, #827, #220 ) ;
#549 = SURFACE_SIDE_STYLE ('',( #1118 ) ) ;
#550 = DIRECTION ( 'NONE',  ( -1.000000000000000000, 0.0000000000000000000, 0.0000000000000000000 ) ) ;
#551 = EDGE_CURVE ( 'NONE', #102, #1303, #55, .T. ) ;
#552 = ADVANCED_FACE ( 'NONE', ( #707 ), #824, .F. ) ;
#553 = CARTESIAN_POINT ( 'NONE',  ( 4.550000000000001600, 5.049999999999999800, 3.100000000000000500 ) ) ;
#554 = ORIENTED_EDGE ( 'NONE', *, *, #894, .T. ) ;
#555 = CARTESIAN_POINT ( 'NONE',  ( 4.900000000000001200, 0.05000000000000000300, 3.100000000000000500 ) ) ;
#556 = AXIS2_PLACEMENT_3D ( 'NONE', #1067, #974, #794 ) ;
#557 = ORIENTED_EDGE ( 'NONE', *, *, #778, .F. ) ;
#558 = SURFACE_STYLE_USAGE ( .BOTH. , #537 ) ;
#559 = CARTESIAN_POINT ( 'NONE',  ( -4.550000000000000700, 0.0000000000000000000, 0.0000000000000000000 ) ) ;
#560 = ORIENTED_EDGE ( 'NONE', *, *, #1143, .T. ) ;
#561 = CARTESIAN_POINT ( 'NONE',  ( -4.900000000000001200, 0.0000000000000000000, 0.0000000000000000000 ) ) ;
#562 = ORIENTED_EDGE ( 'NONE', *, *, #769, .T. ) ;
#563 = VERTEX_POINT ( 'NONE', #1139 ) ;
#564 = MECHANICAL_DESIGN_GEOMETRIC_PRESENTATION_REPRESENTATION (  '', ( #1165 ), #494 ) ;
#565 = EDGE_CURVE ( 'NONE', #858, #966, #807, .T. ) ;
#566 = LINE ( 'NONE', #692, #1273 ) ;
#567 = VECTOR ( 'NONE', #601, 1000.000000000000000 ) ;
#568 = FILL_AREA_STYLE ('',( #770 ) ) ;
#569 = CARTESIAN_POINT ( 'NONE',  ( 4.550000000000001600, 0.0000000000000000000, -3.149999999999999900 ) ) ;
#570 = EDGE_LOOP ( 'NONE', ( #202, #133, #802, #817 ) ) ;
#571 = CARTESIAN_POINT ( 'NONE',  ( -4.550000000000000700, 0.0000000000000000000, 3.150000000000000400 ) ) ;
#572 = EDGE_CURVE ( 'NONE', #880, #815, #270, .T. ) ;
#573 = ORIENTED_EDGE ( 'NONE', *, *, #1076, .F. ) ;
#574 = SURFACE_STYLE_FILL_AREA ( #957 ) ;
#575 = UNCERTAINTY_MEASURE_WITH_UNIT (LENGTH_MEASURE( 1.000000000000000100E-005 ), #515, 'distance_accuracy_value', 'NONE');
#576 = LINE ( 'NONE', #146, #1005 ) ;
#577 =( NAMED_UNIT ( * ) SI_UNIT ( $, .STERADIAN. ) SOLID_ANGLE_UNIT ( ) );
#578 = ORIENTED_EDGE ( 'NONE', *, *, #611, .F. ) ;
#579 = CARTESIAN_POINT ( 'NONE',  ( -4.550000000000000700, 5.049999999999999800, -3.100000000000000100 ) ) ;
#580 = CARTESIAN_POINT ( 'NONE',  ( -4.550000000000001600, 0.05000000000000000300, 3.100000000000000500 ) ) ;
#581 = VERTEX_POINT ( 'NONE', #937 ) ;
#582 = VECTOR ( 'NONE', #729, 1000.000000000000000 ) ;
#583 = DIRECTION ( 'NONE',  ( 0.0000000000000000000, 1.000000000000000000, 0.0000000000000000000 ) ) ;
#584 = CARTESIAN_POINT ( 'NONE',  ( -4.900000000000001200, 0.05000000000000000300, 3.100000000000000500 ) ) ;
#585 = SURFACE_STYLE_FILL_AREA ( #830 ) ;
#586 = LINE ( 'NONE', #555, #1235 ) ;
#587 = VECTOR ( 'NONE', #160, 1000.000000000000000 ) ;
#588 = DIRECTION ( 'NONE',  ( 0.0000000000000000000, 0.0000000000000000000, 1.000000000000000000 ) ) ;
#589 = ORIENTED_EDGE ( 'NONE', *, *, #283, .T. ) ;
#590 = CARTESIAN_POINT ( 'NONE',  ( -4.900000000000001200, 5.049999999999999800, -3.100000000000000100 ) ) ;
#591 = CARTESIAN_POINT ( 'NONE',  ( -4.550000000000000700, 5.049999999999999800, -3.100000000000000100 ) ) ;
#592 = EDGE_LOOP ( 'NONE', ( #1114, #779, #843, #123 ) ) ;
#593 = AXIS2_PLACEMENT_3D ( 'NONE', #579, #476, #170 ) ;
#594 = LINE ( 'NONE', #777, #324 ) ;
#595 = PLANE ( 'NONE',  #556 ) ;
#596 = UNCERTAINTY_MEASURE_WITH_UNIT (LENGTH_MEASURE( 1.000000000000000100E-005 ), #767, 'distance_accuracy_value', 'NONE');
#597 = ORIENTED_EDGE ( 'NONE', *, *, #80, .F. ) ;
#598 = ORIENTED_EDGE ( 'NONE', *, *, #778, .T. ) ;
#599 = DIRECTION ( 'NONE',  ( 1.000000000000000000, 0.0000000000000000000, 0.0000000000000000000 ) ) ;
#600 = CARTESIAN_POINT ( 'NONE',  ( -4.550000000000000700, 0.05000000000000000300, 3.100000000000000500 ) ) ;
#601 = DIRECTION ( 'NONE',  ( 0.0000000000000000000, 1.000000000000000000, 0.0000000000000000000 ) ) ;
#602 = EDGE_CURVE ( 'NONE', #275, #509, #350, .T. ) ;
#603 = COLOUR_RGB ( '',1.000000000000000000, 0.8117647058823529400, 0.5019607843137254800 ) ;
#604 = CARTESIAN_POINT ( 'NONE',  ( 4.550000000000001600, 0.05000000000000000300, 3.100000000000000500 ) ) ;
#605 = FACE_OUTER_BOUND ( 'NONE', #1004, .T. ) ;
#606 = ORIENTED_EDGE ( 'NONE', *, *, #331, .F. ) ;
#607 = DIRECTION ( 'NONE',  ( 1.000000000000000000, -0.0000000000000000000, 0.0000000000000000000 ) ) ;
#608 = DIRECTION ( 'NONE',  ( -1.000000000000000000, -0.0000000000000000000, -0.0000000000000000000 ) ) ;
#609 = ORIENTED_EDGE ( 'NONE', *, *, #535, .F. ) ;
#610 = VECTOR ( 'NONE', #234, 1000.000000000000000 ) ;
#611 = EDGE_CURVE ( 'NONE', #509, #910, #532, .T. ) ;
#612 = DIRECTION ( 'NONE',  ( 0.0000000000000000000, 4.918255822766905200E-017, 1.000000000000000000 ) ) ;
#613 = EDGE_LOOP ( 'NONE', ( #501, #224, #768, #51 ) ) ;
#614 = VECTOR ( 'NONE', #120, 1000.000000000000000 ) ;
#615 =( GEOMETRIC_REPRESENTATION_CONTEXT ( 3 ) GLOBAL_UNCERTAINTY_ASSIGNED_CONTEXT ( ( #828 ) ) GLOBAL_UNIT_ASSIGNED_CONTEXT ( ( #469, #56, #143 ) ) REPRESENTATION_CONTEXT ( 'NONE', 'WORKASPACE' ) );
#616 = PLANE ( 'NONE',  #286 ) ;
#617 = VECTOR ( 'NONE', #907, 1000.000000000000000 ) ;
#618 = EDGE_CURVE ( 'NONE', #663, #910, #457, .T. ) ;
#619 = VECTOR ( 'NONE', #299, 1000.000000000000000 ) ;
#620 = DIRECTION ( 'NONE',  ( -1.000000000000000000, 0.0000000000000000000, 0.0000000000000000000 ) ) ;
#621 = DIRECTION ( 'NONE',  ( 1.000000000000000000, 0.0000000000000000000, 0.0000000000000000000 ) ) ;
#622 = ORIENTED_EDGE ( 'NONE', *, *, #1115, .T. ) ;
#623 = STYLED_ITEM ( 'NONE', ( #38 ), #643 ) ;
#624 = ORIENTED_EDGE ( 'NONE', *, *, #1231, .T. ) ;
#625 = CLOSED_SHELL ( 'NONE', ( #855, #127, #1240, #440, #928, #664, #147, #1158, #267, #237, #27, #1137, #763, #355, #44, #242 ) ) ;
#626 = FILL_AREA_STYLE_COLOUR ( '', #314 ) ;
#627 = CARTESIAN_POINT ( 'NONE',  ( 4.550000000000001600, 5.099999999999999600, -3.149999999999999900 ) ) ;
#628 = VERTEX_POINT ( 'NONE', #130 ) ;
#629 = DIRECTION ( 'NONE',  ( 0.0000000000000000000, -1.000000000000000000, 0.0000000000000000000 ) ) ;
#630 = DIRECTION ( 'NONE',  ( -1.000000000000000000, 0.0000000000000000000, -0.0000000000000000000 ) ) ;
#631 = VERTEX_POINT ( 'NONE', #846 ) ;
#632 = VECTOR ( 'NONE', #972, 1000.000000000000000 ) ;
#633 = CARTESIAN_POINT ( 'NONE',  ( -4.550000000000001600, 0.04999999999999969700, -3.100000000000000100 ) ) ;
#634 = FILL_AREA_STYLE_COLOUR ( '', #639 ) ;
#635 = EDGE_CURVE ( 'NONE', #1123, #363, #757, .T. ) ;
#636 = ORIENTED_EDGE ( 'NONE', *, *, #181, .F. ) ;
#637 = FILL_AREA_STYLE_COLOUR ( '', #196 ) ;
#638 =( GEOMETRIC_REPRESENTATION_CONTEXT ( 3 ) GLOBAL_UNCERTAINTY_ASSIGNED_CONTEXT ( ( #948 ) ) GLOBAL_UNIT_ASSIGNED_CONTEXT ( ( #851, #1252, #764 ) ) REPRESENTATION_CONTEXT ( 'NONE', 'WORKASPACE' ) );
#639 = COLOUR_RGB ( '',0.7529411764705882200, 0.7529411764705882200, 0.7529411764705882200 ) ;
#640 = CARTESIAN_POINT ( 'NONE',  ( 4.550000000000000700, 0.05000000000000000300, -3.100000000000000100 ) ) ;
#641 = EDGE_CURVE ( 'NONE', #66, #880, #252, .T. ) ;
#642 = ORIENTED_EDGE ( 'NONE', *, *, #272, .T. ) ;
#643 = ADVANCED_FACE ( 'NONE', ( #975, #1276 ), #32, .F. ) ;
#644 = FACE_OUTER_BOUND ( 'NONE', #834, .T. ) ;
#645 = SURFACE_SIDE_STYLE ('',( #1019 ) ) ;
#646 = VECTOR ( 'NONE', #859, 1000.000000000000000 ) ;
#647 = LINE ( 'NONE', #956, #291 ) ;
#648 = CARTESIAN_POINT ( 'NONE',  ( -4.550000000000001600, 5.049999999999999800, -3.100000000000000100 ) ) ;
#649 = EDGE_LOOP ( 'NONE', ( #886, #356, #578, #1129 ) ) ;
#650 = CARTESIAN_POINT ( 'NONE',  ( 4.550000000000001600, 5.099999999999999600, 3.150000000000000400 ) ) ;
#651 = DIRECTION ( 'NONE',  ( 0.0000000000000000000, 0.0000000000000000000, 1.000000000000000000 ) ) ;
#652 = ORIENTED_EDGE ( 'NONE', *, *, #306, .T. ) ;
#653 = ORIENTED_EDGE ( 'NONE', *, *, #1024, .T. ) ;
#654 = DIRECTION ( 'NONE',  ( 0.0000000000000000000, -1.000000000000000000, 0.0000000000000000000 ) ) ;
#655 = ORIENTED_EDGE ( 'NONE', *, *, #93, .T. ) ;
#656 = DIRECTION ( 'NONE',  ( 0.0000000000000000000, 0.0000000000000000000, 1.000000000000000000 ) ) ;
#657 = FACE_OUTER_BOUND ( 'NONE', #262, .T. ) ;
#658 =( NAMED_UNIT ( * ) SI_UNIT ( $, .STERADIAN. ) SOLID_ANGLE_UNIT ( ) );
#659 = ADVANCED_FACE ( 'NONE', ( #197, #1071 ), #246, .T. ) ;
#660 = VECTOR ( 'NONE', #106, 1000.000000000000000 ) ;
#661 = AXIS2_PLACEMENT_3D ( 'NONE', #463, #61, #1156 ) ;
#662 = CARTESIAN_POINT ( 'NONE',  ( 4.550000000000000700, 5.049999999999999800, 3.100000000000000500 ) ) ;
#663 = VERTEX_POINT ( 'NONE', #1162 ) ;
#664 = ADVANCED_FACE ( 'NONE', ( #547 ), #866, .T. ) ;
#665 = COLOUR_RGB ( '',0.7921568627450980000, 0.8196078431372548800, 0.9333333333333333500 ) ;
#666 = SURFACE_STYLE_USAGE ( .BOTH. , #1270 ) ;
#667 = FACE_OUTER_BOUND ( 'NONE', #986, .T. ) ;
#668 =( NAMED_UNIT ( * ) SI_UNIT ( $, .STERADIAN. ) SOLID_ANGLE_UNIT ( ) );
#669 = PLANE ( 'NONE',  #661 ) ;
#670 = ORIENTED_EDGE ( 'NONE', *, *, #1024, .F. ) ;
#671 = PRODUCT_DEFINITION_FORMATION_WITH_SPECIFIED_SOURCE ( 'ANY', '', #1148, .NOT_KNOWN. ) ;
#672 = LINE ( 'NONE', #426, #125 ) ;
#673 = SURFACE_SIDE_STYLE ('',( #517 ) ) ;
#674 = VECTOR ( 'NONE', #320, 1000.000000000000000 ) ;
#675 = CARTESIAN_POINT ( 'NONE',  ( -4.900000000000001200, 0.0000000000000000000, -3.149999999999999900 ) ) ;
#676 = STYLED_ITEM ( 'NONE', ( #782 ), #1184 ) ;
#677 = CARTESIAN_POINT ( 'NONE',  ( 4.550000000000001600, 0.0000000000000000000, 3.150000000000000400 ) ) ;
#678 = CARTESIAN_POINT ( 'NONE',  ( -4.550000000000000700, 5.049999999999999800, 3.100000000000000500 ) ) ;
#679 = EDGE_LOOP ( 'NONE', ( #1100, #799, #925, #1027 ) ) ;
#680 = ORIENTED_EDGE ( 'NONE', *, *, #1160, .T. ) ;
#681 = EDGE_CURVE ( 'NONE', #936, #1208, #504, .T. ) ;
#682 = EDGE_LOOP ( 'NONE', ( #90, #1181, #1080, #1195 ) ) ;
#683 = CARTESIAN_POINT ( 'NONE',  ( -4.550000000000000700, 5.049999999999999800, 3.100000000000000500 ) ) ;
#684 = CARTESIAN_POINT ( 'NONE',  ( -4.550000000000001600, 5.049999999999999800, -3.100000000000000100 ) ) ;
#685 = COLOUR_RGB ( '',1.000000000000000000, 0.8117647058823529400, 0.5019607843137254800 ) ;
#686 = DIRECTION ( 'NONE',  ( 0.0000000000000000000, 1.000000000000000000, 0.0000000000000000000 ) ) ;
#687 = CARTESIAN_POINT ( 'NONE',  ( 4.550000000000001600, 0.0000000000000000000, 3.150000000000000400 ) ) ;
#688 = VERTEX_POINT ( 'NONE', #370 ) ;
#689 = UNCERTAINTY_MEASURE_WITH_UNIT (LENGTH_MEASURE( 1.000000000000000100E-005 ), #1091, 'distance_accuracy_value', 'NONE');
#690 = LINE ( 'NONE', #1179, #394 ) ;
#691 = CARTESIAN_POINT ( 'NONE',  ( 4.550000000000001600, 0.0000000000000000000, -3.149999999999999900 ) ) ;
#692 = CARTESIAN_POINT ( 'NONE',  ( -4.550000000000001600, 5.049999999999999800, -3.100000000000000100 ) ) ;
#693 = EDGE_LOOP ( 'NONE', ( #187, #814, #1288, #389 ) ) ;
#694 = CARTESIAN_POINT ( 'NONE',  ( 4.550000000000000700, 0.0000000000000000000, -3.149999999999999900 ) ) ;
#695 = ORIENTED_EDGE ( 'NONE', *, *, #730, .F. ) ;
#696 = PRODUCT_RELATED_PRODUCT_CATEGORY ( 'part', '', ( #1148 ) ) ;
#697 = EDGE_CURVE ( 'NONE', #966, #1026, #586, .T. ) ;
#698 = CARTESIAN_POINT ( 'NONE',  ( -4.900000000000001200, 5.099999999999999600, 3.150000000000000400 ) ) ;
#699 = DIRECTION ( 'NONE',  ( 0.0000000000000000000, -1.000000000000000000, 4.918255822766905200E-017 ) ) ;
#700 = VECTOR ( 'NONE', #546, 1000.000000000000000 ) ;
#701 = ORIENTED_EDGE ( 'NONE', *, *, #1299, .T. ) ;
#702 = AXIS2_PLACEMENT_3D ( 'NONE', #544, #861, #365 ) ;
#703 = ORIENTED_EDGE ( 'NONE', *, *, #842, .T. ) ;
#704 = DIRECTION ( 'NONE',  ( -1.000000000000000000, -0.0000000000000000000, -0.0000000000000000000 ) ) ;
#705 = LINE ( 'NONE', #1095, #176 ) ;
#706 = CARTESIAN_POINT ( 'NONE',  ( -4.550000000000001600, 5.049999999999999800, -3.100000000000000100 ) ) ;
#707 = FACE_OUTER_BOUND ( 'NONE', #1054, .T. ) ;
#708 = VECTOR ( 'NONE', #1169, 1000.000000000000000 ) ;
#709 = DIRECTION ( 'NONE',  ( 0.0000000000000000000, -1.000000000000000000, 0.0000000000000000000 ) ) ;
#710 = ORIENTED_EDGE ( 'NONE', *, *, #1153, .T. ) ;
#711 = CARTESIAN_POINT ( 'NONE',  ( -4.900000000000001200, 0.0000000000000000000, 3.150000000000000400 ) ) ;
#712 = CARTESIAN_POINT ( 'NONE',  ( -4.900000000000001200, 5.099999999999999600, -3.149999999999999900 ) ) ;
#713 = ORIENTED_EDGE ( 'NONE', *, *, #856, .F. ) ;
#714 = CARTESIAN_POINT ( 'NONE',  ( 4.550000000000001600, 0.05000000000000000300, 3.100000000000000500 ) ) ;
#715 =( NAMED_UNIT ( * ) SI_UNIT ( $, .STERADIAN. ) SOLID_ANGLE_UNIT ( ) );
#716 = CARTESIAN_POINT ( 'NONE',  ( -4.900000000000001200, 0.05000000000000000300, 3.100000000000000500 ) ) ;
#717 = ORIENTED_EDGE ( 'NONE', *, *, #348, .T. ) ;
#718 = DIRECTION ( 'NONE',  ( 0.0000000000000000000, 0.0000000000000000000, 1.000000000000000000 ) ) ;
#719 = SURFACE_STYLE_FILL_AREA ( #121 ) ;
#720 = EDGE_CURVE ( 'NONE', #563, #166, #317, .T. ) ;
#721 = LINE ( 'NONE', #78, #758 ) ;
#722 = PRODUCT_DEFINITION_CONTEXT ( 'detailed design', #1065, 'design' ) ;
#723 = DIRECTION ( 'NONE',  ( 0.0000000000000000000, 0.0000000000000000000, -1.000000000000000000 ) ) ;
#724 = CARTESIAN_POINT ( 'NONE',  ( 4.550000000000001600, 5.049999999999999800, -3.100000000000000100 ) ) ;
#725 = UNCERTAINTY_MEASURE_WITH_UNIT (LENGTH_MEASURE( 1.000000000000000100E-005 ), #142, 'distance_accuracy_value', 'NONE');
#726 = EDGE_LOOP ( 'NONE', ( #624, #441, #557, #867 ) ) ;
#727 = AXIS2_PLACEMENT_3D ( 'NONE', #358, #256, #1267 ) ;
#728 = CARTESIAN_POINT ( 'NONE',  ( -4.550000000000001600, 0.05000000000000000300, 3.100000000000000500 ) ) ;
#729 = DIRECTION ( 'NONE',  ( 0.0000000000000000000, 0.0000000000000000000, -1.000000000000000000 ) ) ;
#730 = EDGE_CURVE ( 'NONE', #113, #1259, #808, .T. ) ;
#731 = VERTEX_POINT ( 'NONE', #1272 ) ;
#732 = FACE_OUTER_BOUND ( 'NONE', #679, .T. ) ;
#733 = VERTEX_POINT ( 'NONE', #155 ) ;
#734 = ORIENTED_EDGE ( 'NONE', *, *, #109, .F. ) ;
#735 = DIRECTION ( 'NONE',  ( 0.0000000000000000000, 1.000000000000000000, 0.0000000000000000000 ) ) ;
#736 = ORIENTED_EDGE ( 'NONE', *, *, #959, .T. ) ;
#737 = MECHANICAL_DESIGN_GEOMETRIC_PRESENTATION_REPRESENTATION (  '', ( #823 ), #809 ) ;
#738 = PLANE ( 'NONE',  #37 ) ;
#739 = PRESENTATION_STYLE_ASSIGNMENT (( #417 ) ) ;
#740 = STYLED_ITEM ( 'NONE', ( #1127 ), #1264 ) ;
#741 = FACE_OUTER_BOUND ( 'NONE', #1309, .T. ) ;
#742 = PRESENTATION_STYLE_ASSIGNMENT (( #857 ) ) ;
#743 = ORIENTED_EDGE ( 'NONE', *, *, #919, .F. ) ;
#744 = DIRECTION ( 'NONE',  ( -0.0000000000000000000, 0.0000000000000000000, -1.000000000000000000 ) ) ;
#745 = AXIS2_PLACEMENT_3D ( 'NONE', #311, #1008, #806 ) ;
#746 = ADVANCED_FACE ( 'NONE', ( #741 ), #46, .F. ) ;
#747 = SURFACE_SIDE_STYLE ('',( #1096 ) ) ;
#748 = EDGE_CURVE ( 'NONE', #1303, #98, #647, .T. ) ;
#749 = EDGE_LOOP ( 'NONE', ( #1211, #330, #1226, #1028 ) ) ;
#750 = SURFACE_STYLE_USAGE ( .BOTH. , #645 ) ;
#751 = ORIENTED_EDGE ( 'NONE', *, *, #602, .F. ) ;
#752 = VECTOR ( 'NONE', #822, 1000.000000000000000 ) ;
#753 = FILL_AREA_STYLE_COLOUR ( '', #241 ) ;
#754 = ADVANCED_FACE ( 'NONE', ( #427 ), #669, .T. ) ;
#755 = PRESENTATION_LAYER_ASSIGNMENT (  '', '', ( #623 ) ) ;
#756 = LINE ( 'NONE', #227, #382 ) ;
#757 = LINE ( 'NONE', #325, #1205 ) ;
#758 = VECTOR ( 'NONE', #492, 1000.000000000000000 ) ;
#759 = FILL_AREA_STYLE ('',( #459 ) ) ;
#760 = EDGE_CURVE ( 'NONE', #525, #631, #1172, .T. ) ;
#761 = LINE ( 'NONE', #485, #1121 ) ;
#762 = AXIS2_PLACEMENT_3D ( 'NONE', #480, #1287, #588 ) ;
#763 = ADVANCED_FACE ( 'NONE', ( #316 ), #379, .F. ) ;
#764 =( NAMED_UNIT ( * ) SI_UNIT ( $, .STERADIAN. ) SOLID_ANGLE_UNIT ( ) );
#765 = DIRECTION ( 'NONE',  ( 0.0000000000000000000, 1.000000000000000000, 0.0000000000000000000 ) ) ;
#766 = VERTEX_POINT ( 'NONE', #269 ) ;
#767 =( LENGTH_UNIT ( ) NAMED_UNIT ( * ) SI_UNIT ( .MILLI., .METRE. ) );
#768 = ORIENTED_EDGE ( 'NONE', *, *, #1047, .F. ) ;
#769 = EDGE_CURVE ( 'NONE', #910, #1259, #973, .T. ) ;
#770 = FILL_AREA_STYLE_COLOUR ( '', #444 ) ;
#771 = DIRECTION ( 'NONE',  ( 1.000000000000000000, 0.0000000000000000000, 0.0000000000000000000 ) ) ;
#772 = ORIENTED_EDGE ( 'NONE', *, *, #283, .F. ) ;
#773 = UNCERTAINTY_MEASURE_WITH_UNIT (LENGTH_MEASURE( 1.000000000000000100E-005 ), #854, 'distance_accuracy_value', 'NONE');
#774 = DIRECTION ( 'NONE',  ( 0.0000000000000000000, -1.000000000000000000, 0.0000000000000000000 ) ) ;
#775 = PRESENTATION_LAYER_ASSIGNMENT (  '', '', ( #318 ) ) ;
#776 = VECTOR ( 'NONE', #42, 1000.000000000000000 ) ;
#777 = CARTESIAN_POINT ( 'NONE',  ( 4.900000000000001200, 5.049999999999999800, -3.100000000000000100 ) ) ;
#778 = EDGE_CURVE ( 'NONE', #887, #313, #566, .T. ) ;
#779 = ORIENTED_EDGE ( 'NONE', *, *, #965, .T. ) ;
#780 = FILL_AREA_STYLE ('',( #1056 ) ) ;
#781 = PRODUCT_CONTEXT ( 'NONE', #70, 'mechanical' ) ;
#782 = PRESENTATION_STYLE_ASSIGNMENT (( #443 ) ) ;
#783 = CARTESIAN_POINT ( 'NONE',  ( 4.550000000000001600, 5.049999999999999800, 3.100000000000000500 ) ) ;
#784 = DIRECTION ( 'NONE',  ( 1.000000000000000000, 0.0000000000000000000, -0.0000000000000000000 ) ) ;
#785 = ORIENTED_EDGE ( 'NONE', *, *, #272, .F. ) ;
#786 = ORIENTED_EDGE ( 'NONE', *, *, #1246, .F. ) ;
#787 = DIRECTION ( 'NONE',  ( 0.0000000000000000000, 0.0000000000000000000, 1.000000000000000000 ) ) ;
#788 = LINE ( 'NONE', #1090, #156 ) ;
#789 = CARTESIAN_POINT ( 'NONE',  ( 4.550000000000000700, 5.049999999999999800, -3.100000000000000100 ) ) ;
#790 = CARTESIAN_POINT ( 'NONE',  ( 4.900000000000000400, 0.04999999999999969700, -3.100000000000000100 ) ) ;
#791 = VECTOR ( 'NONE', #704, 1000.000000000000000 ) ;
#792 = CARTESIAN_POINT ( 'NONE',  ( 4.550000000000000700, 5.049999999999999800, -3.100000000000000100 ) ) ;
#793 = PLANE ( 'NONE',  #1265 ) ;
#794 = DIRECTION ( 'NONE',  ( 0.0000000000000000000, 0.0000000000000000000, 1.000000000000000000 ) ) ;
#795 = CARTESIAN_POINT ( 'NONE',  ( -4.900000000000001200, 5.049999999999999800, 3.100000000000000500 ) ) ;
#796 = DIRECTION ( 'NONE',  ( 0.0000000000000000000, 0.0000000000000000000, 1.000000000000000000 ) ) ;
#797 = PRESENTATION_STYLE_ASSIGNMENT (( #558 ) ) ;
#798 = AXIS2_PLACEMENT_3D ( 'NONE', #387, #491, #171 ) ;
#799 = ORIENTED_EDGE ( 'NONE', *, *, #495, .T. ) ;
#800 = VERTEX_POINT ( 'NONE', #290 ) ;
#801 = CARTESIAN_POINT ( 'NONE',  ( 4.550000000000001600, 0.05000000000000000300, 3.100000000000000500 ) ) ;
#802 = ORIENTED_EDGE ( 'NONE', *, *, #372, .F. ) ;
#803 = EDGE_CURVE ( 'NONE', #688, #327, #1116, .T. ) ;
#804 = STYLED_ITEM ( 'NONE', ( #11 ), #213 ) ;
#805 = SURFACE_SIDE_STYLE ('',( #119 ) ) ;
#806 = DIRECTION ( 'NONE',  ( 0.0000000000000000000, 0.0000000000000000000, 1.000000000000000000 ) ) ;
#807 = LINE ( 'NONE', #1041, #530 ) ;
#808 = LINE ( 'NONE', #569, #1138 ) ;
#809 =( GEOMETRIC_REPRESENTATION_CONTEXT ( 3 ) GLOBAL_UNCERTAINTY_ASSIGNED_CONTEXT ( ( #82 ) ) GLOBAL_UNIT_ASSIGNED_CONTEXT ( ( #1216, #527, #210 ) ) REPRESENTATION_CONTEXT ( 'NONE', 'WORKASPACE' ) );
#810 = PLANE ( 'NONE',  #920 ) ;
#811 = PRESENTATION_LAYER_ASSIGNMENT (  '', '', ( #1086 ) ) ;
#812 = PRODUCT_DEFINITION_SHAPE ( 'NONE', 'NONE',  #271 ) ;
#813 = DIRECTION ( 'NONE',  ( 0.0000000000000000000, 0.0000000000000000000, 1.000000000000000000 ) ) ;
#814 = ORIENTED_EDGE ( 'NONE', *, *, #1098, .T. ) ;
#815 = VERTEX_POINT ( 'NONE', #590 ) ;
#816 = MECHANICAL_DESIGN_GEOMETRIC_PRESENTATION_REPRESENTATION (  '', ( #369 ), #1212 ) ;
#817 = ORIENTED_EDGE ( 'NONE', *, *, #602, .T. ) ;
#818 =( LENGTH_UNIT ( ) NAMED_UNIT ( * ) SI_UNIT ( .MILLI., .METRE. ) );
#819 = DIRECTION ( 'NONE',  ( 1.000000000000000000, 0.0000000000000000000, 0.0000000000000000000 ) ) ;
#820 = LINE ( 'NONE', #905, #752 ) ;
#821 = EDGE_CURVE ( 'NONE', #955, #138, #1103, .T. ) ;
#822 = DIRECTION ( 'NONE',  ( 1.000000000000000000, -0.0000000000000000000, -0.0000000000000000000 ) ) ;
#823 = STYLED_ITEM ( 'NONE', ( #739 ), #362 ) ;
#824 = PLANE ( 'NONE',  #548 ) ;
#825 =( NAMED_UNIT ( * ) SI_UNIT ( $, .STERADIAN. ) SOLID_ANGLE_UNIT ( ) );
#826 = FILL_AREA_STYLE_COLOUR ( '', #378 ) ;
#827 = DIRECTION ( 'NONE',  ( 0.0000000000000000000, -1.000000000000000000, 4.918255822766905200E-017 ) ) ;
#828 = UNCERTAINTY_MEASURE_WITH_UNIT (LENGTH_MEASURE( 1.000000000000000100E-005 ), #469, 'distance_accuracy_value', 'NONE');
#829 = SHAPE_DEFINITION_REPRESENTATION ( #812, #1081 ) ;
#830 = FILL_AREA_STYLE ('',( #514 ) ) ;
#831 = SURFACE_STYLE_USAGE ( .BOTH. , #528 ) ;
#832 = ORIENTED_EDGE ( 'NONE', *, *, #1186, .F. ) ;
#833 = ORIENTED_EDGE ( 'NONE', *, *, #821, .T. ) ;
#834 = EDGE_LOOP ( 'NONE', ( #943, #1214, #743, #112 ) ) ;
#835 = FACE_OUTER_BOUND ( 'NONE', #693, .T. ) ;
#836 = VECTOR ( 'NONE', #819, 1000.000000000000000 ) ;
#837 = VECTOR ( 'NONE', #870, 1000.000000000000000 ) ;
#838 = CARTESIAN_POINT ( 'NONE',  ( 4.900000000000001200, 5.049999999999999800, 3.100000000000000500 ) ) ;
#839 = ADVANCED_FACE ( 'NONE', ( #657 ), #493, .T. ) ;
#840 = VERTEX_POINT ( 'NONE', #600 ) ;
#841 = CARTESIAN_POINT ( 'NONE',  ( 4.550000000000000700, 0.05000000000000000300, -3.100000000000000100 ) ) ;
#842 = EDGE_CURVE ( 'NONE', #284, #581, #526, .T. ) ;
#843 = ORIENTED_EDGE ( 'NONE', *, *, #472, .T. ) ;
#844 = DIRECTION ( 'NONE',  ( 0.0000000000000000000, 0.0000000000000000000, -1.000000000000000000 ) ) ;
#845 = ORIENTED_EDGE ( 'NONE', *, *, #109, .T. ) ;
#846 = CARTESIAN_POINT ( 'NONE',  ( 4.900000000000000400, 0.05000000000000000300, 3.100000000000000500 ) ) ;
#847 = PRESENTATION_STYLE_ASSIGNMENT (( #402 ) ) ;
#848 = CARTESIAN_POINT ( 'NONE',  ( 4.550000000000000700, 5.049999999999999800, -3.100000000000000100 ) ) ;
#849 = CARTESIAN_POINT ( 'NONE',  ( 4.550000000000001600, 0.05000000000000000300, 3.100000000000000500 ) ) ;
#850 = ORIENTED_EDGE ( 'NONE', *, *, #1087, .T. ) ;
#851 =( LENGTH_UNIT ( ) NAMED_UNIT ( * ) SI_UNIT ( .MILLI., .METRE. ) );
#852 = ORIENTED_EDGE ( 'NONE', *, *, #1012, .F. ) ;
#853 =( NAMED_UNIT ( * ) SI_UNIT ( $, .STERADIAN. ) SOLID_ANGLE_UNIT ( ) );
#854 =( LENGTH_UNIT ( ) NAMED_UNIT ( * ) SI_UNIT ( .MILLI., .METRE. ) );
#855 = ADVANCED_FACE ( 'NONE', ( #945 ), #793, .F. ) ;
#856 = EDGE_CURVE ( 'NONE', #628, #982, #424, .T. ) ;
#857 = SURFACE_STYLE_USAGE ( .BOTH. , #45 ) ;
#858 = VERTEX_POINT ( 'NONE', #294 ) ;
#859 = DIRECTION ( 'NONE',  ( 1.000000000000000000, -0.0000000000000000000, -0.0000000000000000000 ) ) ;
#860 = EDGE_LOOP ( 'NONE', ( #1180, #1266, #606, #939 ) ) ;
#861 = DIRECTION ( 'NONE',  ( 0.0000000000000000000, -1.000000000000000000, 0.0000000000000000000 ) ) ;
#862 = CARTESIAN_POINT ( 'NONE',  ( -4.550000000000001600, 0.05000000000000000300, 3.100000000000000500 ) ) ;
#863 = ADVANCED_FACE ( 'NONE', ( #1082 ), #1300, .F. ) ;
#864 =( NAMED_UNIT ( * ) SI_UNIT ( $, .STERADIAN. ) SOLID_ANGLE_UNIT ( ) );
#865 = FACE_OUTER_BOUND ( 'NONE', #613, .T. ) ;
#866 = PLANE ( 'NONE',  #199 ) ;
#867 = ORIENTED_EDGE ( 'NONE', *, *, #1260, .T. ) ;
#868 = ORIENTED_EDGE ( 'NONE', *, *, #148, .F. ) ;
#869 = EDGE_LOOP ( 'NONE', ( #652, #785, #298, #1141 ) ) ;
#870 = DIRECTION ( 'NONE',  ( 0.0000000000000000000, 0.0000000000000000000, 1.000000000000000000 ) ) ;
#871 = DIRECTION ( 'NONE',  ( 0.0000000000000000000, -1.000000000000000000, 0.0000000000000000000 ) ) ;
#872 = EDGE_LOOP ( 'NONE', ( #1230, #360, #713, #968 ) ) ;
#873 = DIRECTION ( 'NONE',  ( 1.000000000000000000, -0.0000000000000000000, -0.0000000000000000000 ) ) ;
#874 = CLOSED_SHELL ( 'NONE', ( #368, #346, #249, #839, #153, #659, #863, #746, #933, #448 ) ) ;
#875 =( LENGTH_UNIT ( ) NAMED_UNIT ( * ) SI_UNIT ( .MILLI., .METRE. ) );
#876 = CARTESIAN_POINT ( 'NONE',  ( 4.550000000000000700, 5.049999999999999800, 3.100000000000000500 ) ) ;
#877 = LINE ( 'NONE', #993, #619 ) ;
#878 = EDGE_CURVE ( 'NONE', #982, #449, #1014, .T. ) ;
#879 = PLANE ( 'NONE',  #54 ) ;
#880 = VERTEX_POINT ( 'NONE', #795 ) ;
#881 = DIRECTION ( 'NONE',  ( -0.0000000000000000000, 1.000000000000000000, 0.0000000000000000000 ) ) ;
#882 = CARTESIAN_POINT ( 'NONE',  ( 4.550000000000001600, 0.04999999999999969700, -3.100000000000000100 ) ) ;
#883 = AXIS2_PLACEMENT_3D ( 'NONE', #912, #718, #111 ) ;
#884 = VERTEX_POINT ( 'NONE', #580 ) ;
#885 = PRESENTATION_LAYER_ASSIGNMENT (  '', '', ( #1059 ) ) ;
#886 = ORIENTED_EDGE ( 'NONE', *, *, #40, .F. ) ;
#887 = VERTEX_POINT ( 'NONE', #684 ) ;
#888 = LINE ( 'NONE', #105, #408 ) ;
#889 = CARTESIAN_POINT ( 'NONE',  ( 4.900000000000001200, 0.0000000000000000000, 3.150000000000000400 ) ) ;
#890 = CARTESIAN_POINT ( 'NONE',  ( -4.550000000000001600, 5.049999999999999800, 3.100000000000000500 ) ) ;
#891 = COLOUR_RGB ( '',1.000000000000000000, 0.8117647058823529400, 0.5019607843137254800 ) ;
#892 = DIRECTION ( 'NONE',  ( 0.0000000000000000000, 1.000000000000000000, 0.0000000000000000000 ) ) ;
#893 = DIRECTION ( 'NONE',  ( -0.0000000000000000000, 0.0000000000000000000, -1.000000000000000000 ) ) ;
#894 = EDGE_CURVE ( 'NONE', #733, #915, #1030, .T. ) ;
#895 =( NAMED_UNIT ( * ) PLANE_ANGLE_UNIT ( ) SI_UNIT ( $, .RADIAN. ) );
#896 = DIRECTION ( 'NONE',  ( 0.0000000000000000000, 0.0000000000000000000, -1.000000000000000000 ) ) ;
#897 = SURFACE_SIDE_STYLE ('',( #1203 ) ) ;
#898 = VECTOR ( 'NONE', #922, 1000.000000000000000 ) ;
#899 = MECHANICAL_DESIGN_GEOMETRIC_PRESENTATION_REPRESENTATION (  '', ( #318 ), #386 ) ;
#900 = DIRECTION ( 'NONE',  ( 0.0000000000000000000, 0.0000000000000000000, -1.000000000000000000 ) ) ;
#901 = VERTEX_POINT ( 'NONE', #79 ) ;
#902 = LINE ( 'NONE', #498, #442 ) ;
#903 = VECTOR ( 'NONE', #1282, 1000.000000000000000 ) ;
#904 = CARTESIAN_POINT ( 'NONE',  ( -4.550000000000001600, 5.099999999999999600, 3.150000000000000400 ) ) ;
#905 = CARTESIAN_POINT ( 'NONE',  ( 4.550000000000000700, 0.05000000000000000300, -3.100000000000000100 ) ) ;
#906 = VECTOR ( 'NONE', #35, 1000.000000000000000 ) ;
#907 = DIRECTION ( 'NONE',  ( -1.000000000000000000, -0.0000000000000000000, -0.0000000000000000000 ) ) ;
#908 = ORIENTED_EDGE ( 'NONE', *, *, #472, .F. ) ;
#909 = CARTESIAN_POINT ( 'NONE',  ( -4.550000000000001600, 5.049999999999999800, 3.100000000000000500 ) ) ;
#910 = VERTEX_POINT ( 'NONE', #1085 ) ;
#911 = PRESENTATION_LAYER_ASSIGNMENT (  '', '', ( #740 ) ) ;
#912 = CARTESIAN_POINT ( 'NONE',  ( -4.550000000000000700, 0.05000000000000000300, -3.100000000000000100 ) ) ;
#913 = DIRECTION ( 'NONE',  ( 0.0000000000000000000, -4.918255822766905200E-017, -1.000000000000000000 ) ) ;
#914 = DIRECTION ( 'NONE',  ( 0.0000000000000000000, -1.000000000000000000, -0.0000000000000000000 ) ) ;
#915 = VERTEX_POINT ( 'NONE', #1293 ) ;
#916 = ORIENTED_EDGE ( 'NONE', *, *, #1098, .F. ) ;
#917 = PLANE ( 'NONE',  #96 ) ;
#918 = DIRECTION ( 'NONE',  ( 0.0000000000000000000, 0.0000000000000000000, -1.000000000000000000 ) ) ;
#919 = EDGE_CURVE ( 'NONE', #313, #884, #690, .T. ) ;
#920 = AXIS2_PLACEMENT_3D ( 'NONE', #1191, #607, #1304 ) ;
#921 = FACE_OUTER_BOUND ( 'NONE', #726, .T. ) ;
#922 = DIRECTION ( 'NONE',  ( 0.0000000000000000000, 1.000000000000000000, 0.0000000000000000000 ) ) ;
#923 = LINE ( 'NONE', #192, #1174 ) ;
#924 = STYLED_ITEM ( 'NONE', ( #847 ), #1035 ) ;
#925 = ORIENTED_EDGE ( 'NONE', *, *, #878, .F. ) ;
#926 = EDGE_CURVE ( 'NONE', #982, #800, #380, .T. ) ;
#927 = SURFACE_STYLE_USAGE ( .BOTH. , #1110 ) ;
#928 = ADVANCED_FACE ( 'NONE', ( #1134, #835 ), #99, .T. ) ;
#929 = AXIS2_PLACEMENT_3D ( 'NONE', #1295, #1279, #173 ) ;
#930 = ORIENTED_EDGE ( 'NONE', *, *, #551, .T. ) ;
#931 = VECTOR ( 'NONE', #415, 1000.000000000000000 ) ;
#932 = DIRECTION ( 'NONE',  ( -1.000000000000000000, 0.0000000000000000000, -0.0000000000000000000 ) ) ;
#933 = ADVANCED_FACE ( 'NONE', ( #644 ), #1101, .F. ) ;
#934 = VECTOR ( 'NONE', #217, 1000.000000000000000 ) ;
#935 = FACE_OUTER_BOUND ( 'NONE', #749, .T. ) ;
#936 = VERTEX_POINT ( 'NONE', #712 ) ;
#937 = CARTESIAN_POINT ( 'NONE',  ( -4.900000000000001200, 5.049999999999999800, -3.100000000000000100 ) ) ;
#938 = AXIS2_PLACEMENT_3D ( 'NONE', #508, #193, #206 ) ;
#939 = ORIENTED_EDGE ( 'NONE', *, *, #730, .T. ) ;
#940 = EDGE_CURVE ( 'NONE', #766, #399, #820, .T. ) ;
#941 = ORIENTED_EDGE ( 'NONE', *, *, #203, .T. ) ;
#942 = FILL_AREA_STYLE ('',( #753 ) ) ;
#943 = ORIENTED_EDGE ( 'NONE', *, *, #1036, .T. ) ;
#944 = PRESENTATION_LAYER_ASSIGNMENT (  '', '', ( #288 ) ) ;
#945 = FACE_OUTER_BOUND ( 'NONE', #872, .T. ) ;
#946 =( NAMED_UNIT ( * ) PLANE_ANGLE_UNIT ( ) SI_UNIT ( $, .RADIAN. ) );
#947 =( NAMED_UNIT ( * ) PLANE_ANGLE_UNIT ( ) SI_UNIT ( $, .RADIAN. ) );
#948 = UNCERTAINTY_MEASURE_WITH_UNIT (LENGTH_MEASURE( 1.000000000000000100E-005 ), #851, 'distance_accuracy_value', 'NONE');
#949 = CARTESIAN_POINT ( 'NONE',  ( -4.550000000000000700, 0.05000000000000000300, -3.100000000000000100 ) ) ;
#950 = VECTOR ( 'NONE', #813, 1000.000000000000000 ) ;
#951 = DIRECTION ( 'NONE',  ( 0.0000000000000000000, -0.0000000000000000000, -1.000000000000000000 ) ) ;
#952 = FACE_OUTER_BOUND ( 'NONE', #971, .T. ) ;
#953 = DIRECTION ( 'NONE',  ( 0.0000000000000000000, 0.0000000000000000000, 1.000000000000000000 ) ) ;
#954 = ORIENTED_EDGE ( 'NONE', *, *, #420, .F. ) ;
#955 = VERTEX_POINT ( 'NONE', #1209 ) ;
#956 = CARTESIAN_POINT ( 'NONE',  ( -4.900000000000001200, 0.0000000000000000000, 3.150000000000000400 ) ) ;
#957 = FILL_AREA_STYLE ('',( #167 ) ) ;
#958 = LINE ( 'NONE', #340, #700 ) ;
#959 = EDGE_CURVE ( 'NONE', #884, #66, #788, .T. ) ;
#960 = CARTESIAN_POINT ( 'NONE',  ( -4.900000000000001200, 5.099999999999999600, -3.149999999999999900 ) ) ;
#961 = ORIENTED_EDGE ( 'NONE', *, *, #681, .T. ) ;
#962 = EDGE_LOOP ( 'NONE', ( #265, #573, #734, #554 ) ) ;
#963 = LINE ( 'NONE', #186, #247 ) ;
#964 = FILL_AREA_STYLE ('',( #274 ) ) ;
#965 = EDGE_CURVE ( 'NONE', #631, #399, #963, .T. ) ;
#966 = VERTEX_POINT ( 'NONE', #1305 ) ;
#967 = CARTESIAN_POINT ( 'NONE',  ( -4.550000000000001600, 5.099999999999999600, 3.150000000000000400 ) ) ;
#968 = ORIENTED_EDGE ( 'NONE', *, *, #1313, .T. ) ;
#969 = EDGE_LOOP ( 'NONE', ( #230, #391, #1151, #1099 ) ) ;
#970 = DIRECTION ( 'NONE',  ( 0.0000000000000000000, 1.000000000000000000, 0.0000000000000000000 ) ) ;
#971 = EDGE_LOOP ( 'NONE', ( #1002, #204, #232, #343 ) ) ;
#972 = DIRECTION ( 'NONE',  ( 1.000000000000000000, -0.0000000000000000000, -0.0000000000000000000 ) ) ;
#973 = LINE ( 'NONE', #94, #214 ) ;
#974 = DIRECTION ( 'NONE',  ( -1.000000000000000000, 0.0000000000000000000, 0.0000000000000000000 ) ) ;
#975 = FACE_BOUND ( 'NONE', #1189, .T. ) ;
#976 = CARTESIAN_POINT ( 'NONE',  ( 4.550000000000000700, 5.049999999999999800, 3.100000000000000500 ) ) ;
#977 = LINE ( 'NONE', #1078, #587 ) ;
#978 = EDGE_CURVE ( 'NONE', #1164, #880, #6, .T. ) ;
#979 = FACE_OUTER_BOUND ( 'NONE', #452, .T. ) ;
#980 = CARTESIAN_POINT ( 'NONE',  ( -4.550000000000000700, 5.049999999999999800, -3.100000000000000100 ) ) ;
#981 = DIRECTION ( 'NONE',  ( 0.0000000000000000000, -0.0000000000000000000, 1.000000000000000000 ) ) ;
#982 = VERTEX_POINT ( 'NONE', #1192 ) ;
#983 = PRESENTATION_LAYER_ASSIGNMENT (  '', '', ( #519 ) ) ;
#984 = FACE_OUTER_BOUND ( 'NONE', #1268, .T. ) ;
#985 = PLANE ( 'NONE',  #58 ) ;
#986 = EDGE_LOOP ( 'NONE', ( #1301, #751, #434, #833 ) ) ;
#987 = CARTESIAN_POINT ( 'NONE',  ( 4.550000000000000700, 5.099999999999999600, -3.149999999999999900 ) ) ;
#988 = ORIENTED_EDGE ( 'NONE', *, *, #1313, .F. ) ;
#989 = DIRECTION ( 'NONE',  ( -1.000000000000000000, 0.0000000000000000000, 0.0000000000000000000 ) ) ;
#990 = EDGE_CURVE ( 'NONE', #313, #901, #902, .T. ) ;
#991 = ORIENTED_EDGE ( 'NONE', *, *, #618, .T. ) ;
#992 = ORIENTED_EDGE ( 'NONE', *, *, #433, .T. ) ;
#993 = CARTESIAN_POINT ( 'NONE',  ( 4.550000000000001600, 5.099999999999999600, -3.149999999999999900 ) ) ;
#994 = CARTESIAN_POINT ( 'NONE',  ( -4.550000000000001600, 0.04999999999999969700, -3.100000000000000100 ) ) ;
#995 = AXIS2_PLACEMENT_3D ( 'NONE', #706, #893, #989 ) ;
#996 = PRESENTATION_STYLE_ASSIGNMENT (( #403 ) ) ;
#997 = FACE_OUTER_BOUND ( 'NONE', #1198, .T. ) ;
#998 = DIRECTION ( 'NONE',  ( 0.0000000000000000000, -0.0000000000000000000, 1.000000000000000000 ) ) ;
#999 =( NAMED_UNIT ( * ) PLANE_ANGLE_UNIT ( ) SI_UNIT ( $, .RADIAN. ) );
#1000 = PLANE ( 'NONE',  #1073 ) ;
#1001 = EDGE_LOOP ( 'NONE', ( #1037, #1161, #988, #916 ) ) ;
#1002 = ORIENTED_EDGE ( 'NONE', *, *, #397, .F. ) ;
#1003 = DIRECTION ( 'NONE',  ( -1.000000000000000000, 0.0000000000000000000, 0.0000000000000000000 ) ) ;
#1004 = EDGE_LOOP ( 'NONE', ( #1092, #1239, #1048, #868 ) ) ;
#1005 = VECTOR ( 'NONE', #651, 1000.000000000000000 ) ;
#1006 = MECHANICAL_DESIGN_GEOMETRIC_PRESENTATION_REPRESENTATION (  '', ( #519 ), #1053 ) ;
#1007 = CARTESIAN_POINT ( 'NONE',  ( 4.550000000000000700, 0.05000000000000000300, 3.100000000000000500 ) ) ;
#1008 = DIRECTION ( 'NONE',  ( 1.000000000000000000, 0.0000000000000000000, -0.0000000000000000000 ) ) ;
#1009 = CARTESIAN_POINT ( 'NONE',  ( 4.900000000000001200, 5.099999999999999600, 3.150000000000000400 ) ) ;
#1010 = CLOSED_SHELL ( 'NONE', ( #538, #1256, #754, #1247, #643, #1035, #1264, #362, #552, #1144 ) ) ;
#1011 = UNCERTAINTY_MEASURE_WITH_UNIT (LENGTH_MEASURE( 1.000000000000000100E-005 ), #1284, 'distance_accuracy_value', 'NONE');
#1012 = EDGE_CURVE ( 'NONE', #327, #534, #705, .T. ) ;
#1013 = VECTOR ( 'NONE', #518, 1000.000000000000000 ) ;
#1014 = LINE ( 'NONE', #987, #1183 ) ;
#1015 = SURFACE_SIDE_STYLE ('',( #585 ) ) ;
#1016 = DIRECTION ( 'NONE',  ( 0.0000000000000000000, 4.918255822766905200E-017, 1.000000000000000000 ) ) ;
#1017 = DIRECTION ( 'NONE',  ( 0.0000000000000000000, 4.918255822766905200E-017, 1.000000000000000000 ) ) ;
#1018 = COLOUR_RGB ( '',0.7529411764705882200, 0.7529411764705882200, 0.7529411764705882200 ) ;
#1019 = SURFACE_STYLE_FILL_AREA ( #1150 ) ;
#1020 = MECHANICAL_DESIGN_GEOMETRIC_PRESENTATION_REPRESENTATION (  '', ( #623 ), #1302 ) ;
#1021 = CARTESIAN_POINT ( 'NONE',  ( 4.550000000000000700, 5.049999999999999800, 3.100000000000000500 ) ) ;
#1022 = LINE ( 'NONE', #683, #1058 ) ;
#1023 = DIRECTION ( 'NONE',  ( -1.000000000000000000, -0.0000000000000000000, -0.0000000000000000000 ) ) ;
#1024 = EDGE_CURVE ( 'NONE', #1164, #887, #888, .T. ) ;
#1025 =( NAMED_UNIT ( * ) PLANE_ANGLE_UNIT ( ) SI_UNIT ( $, .RADIAN. ) );
#1026 = VERTEX_POINT ( 'NONE', #1106 ) ;
#1027 = ORIENTED_EDGE ( 'NONE', *, *, #926, .T. ) ;
#1028 = ORIENTED_EDGE ( 'NONE', *, *, #940, .T. ) ;
#1029 = AXIS2_PLACEMENT_3D ( 'NONE', #1275, #1055, #466 ) ;
#1030 = LINE ( 'NONE', #678, #903 ) ;
#1031 = STYLED_ITEM ( 'NONE', ( #742 ), #27 ) ;
#1032 = COLOUR_RGB ( '',1.000000000000000000, 0.8117647058823529400, 0.5019607843137254800 ) ;
#1033 =( NAMED_UNIT ( * ) PLANE_ANGLE_UNIT ( ) SI_UNIT ( $, .RADIAN. ) );
#1034 = SURFACE_STYLE_FILL_AREA ( #568 ) ;
#1035 = ADVANCED_FACE ( 'NONE', ( #423, #141 ), #3, .T. ) ;
#1036 = EDGE_CURVE ( 'NONE', #901, #66, #470, .T. ) ;
#1037 = ORIENTED_EDGE ( 'NONE', *, *, #748, .F. ) ;
#1038 =( LENGTH_UNIT ( ) NAMED_UNIT ( * ) SI_UNIT ( .MILLI., .METRE. ) );
#1039 = LINE ( 'NONE', #29, #1013 ) ;
#1040 = PLANE ( 'NONE',  #31 ) ;
#1041 = CARTESIAN_POINT ( 'NONE',  ( 4.900000000000001200, 0.04999999999999969700, -3.100000000000000100 ) ) ;
#1042 = PRESENTATION_LAYER_ASSIGNMENT (  '', '', ( #1245 ) ) ;
#1043 = FACE_OUTER_BOUND ( 'NONE', #1278, .T. ) ;
#1044 = SURFACE_STYLE_FILL_AREA ( #401 ) ;
#1045 = DIRECTION ( 'NONE',  ( 0.0000000000000000000, 0.0000000000000000000, 1.000000000000000000 ) ) ;
#1046 = UNCERTAINTY_MEASURE_WITH_UNIT (LENGTH_MEASURE( 1.000000000000000100E-005 ), #818, 'distance_accuracy_value', 'NONE');
#1047 = EDGE_CURVE ( 'NONE', #101, #524, #1102, .T. ) ;
#1048 = ORIENTED_EDGE ( 'NONE', *, *, #1070, .F. ) ;
#1049 = PLANE ( 'NONE',  #406 ) ;
#1050 = DIRECTION ( 'NONE',  ( 0.0000000000000000000, 0.0000000000000000000, 1.000000000000000000 ) ) ;
#1051 = STYLED_ITEM ( 'NONE', ( #1206 ), #257 ) ;
#1052 = ORIENTED_EDGE ( 'NONE', *, *, #1213, .T. ) ;
#1053 =( GEOMETRIC_REPRESENTATION_CONTEXT ( 3 ) GLOBAL_UNCERTAINTY_ASSIGNED_CONTEXT ( ( #1296 ) ) GLOBAL_UNIT_ASSIGNED_CONTEXT ( ( #1167, #1277, #478 ) ) REPRESENTATION_CONTEXT ( 'NONE', 'WORKASPACE' ) );
#1054 = EDGE_LOOP ( 'NONE', ( #4, #385, #68, #81 ) ) ;
#1055 = DIRECTION ( 'NONE',  ( 0.0000000000000000000, 0.0000000000000000000, 1.000000000000000000 ) ) ;
#1056 = FILL_AREA_STYLE_COLOUR ( '', #9 ) ;
#1057 = VECTOR ( 'NONE', #1229, 1000.000000000000000 ) ;
#1058 = VECTOR ( 'NONE', #1178, 1000.000000000000000 ) ;
#1059 = STYLED_ITEM ( 'NONE', ( #996 ), #538 ) ;
#1060 = CARTESIAN_POINT ( 'NONE',  ( -4.550000000000000700, 0.05000000000000000300, 3.100000000000000500 ) ) ;
#1061 = AXIS2_PLACEMENT_3D ( 'NONE', #258, #844, #345 ) ;
#1062 = PLANE ( 'NONE',  #762 ) ;
#1063 = SURFACE_STYLE_USAGE ( .BOTH. , #473 ) ;
#1064 = ORIENTED_EDGE ( 'NONE', *, *, #293, .F. ) ;
#1065 = APPLICATION_CONTEXT ( 'automotive_design' ) ;
#1066 = AXIS2_PLACEMENT_3D ( 'NONE', #862, #263, #67 ) ;
#1067 = CARTESIAN_POINT ( 'NONE',  ( -4.550000000000001600, 0.0000000000000000000, 0.0000000000000000000 ) ) ;
#1068 = CARTESIAN_POINT ( 'NONE',  ( -4.900000000000000400, 0.05000000000000000300, -3.100000000000000100 ) ) ;
#1069 = SURFACE_STYLE_FILL_AREA ( #1126 ) ;
#1070 = EDGE_CURVE ( 'NONE', #1248, #800, #1039, .T. ) ;
#1071 = FACE_OUTER_BOUND ( 'NONE', #255, .T. ) ;
#1072 = DIRECTION ( 'NONE',  ( 0.0000000000000000000, 0.0000000000000000000, -1.000000000000000000 ) ) ;
#1073 = AXIS2_PLACEMENT_3D ( 'NONE', #139, #914, #744 ) ;
#1074 = DIRECTION ( 'NONE',  ( 0.0000000000000000000, -1.000000000000000000, 0.0000000000000000000 ) ) ;
#1075 = VECTOR ( 'NONE', #371, 1000.000000000000000 ) ;
#1076 = EDGE_CURVE ( 'NONE', #840, #731, #233, .T. ) ;
#1077 = ORIENTED_EDGE ( 'NONE', *, *, #80, .T. ) ;
#1078 = CARTESIAN_POINT ( 'NONE',  ( -4.550000000000001600, 5.099999999999999600, 3.150000000000000400 ) ) ;
#1079 = ORIENTED_EDGE ( 'NONE', *, *, #251, .F. ) ;
#1080 = ORIENTED_EDGE ( 'NONE', *, *, #1036, .F. ) ;
#1081 = ADVANCED_BREP_SHAPE_REPRESENTATION ( 'ECWU1105KCV', ( #1184, #257, #213, #1029 ), #404 ) ;
#1082 = FACE_OUTER_BOUND ( 'NONE', #496, .T. ) ;
#1083 = LINE ( 'NONE', #336, #22 ) ;
#1084 =( LENGTH_UNIT ( ) NAMED_UNIT ( * ) SI_UNIT ( .MILLI., .METRE. ) );
#1085 = CARTESIAN_POINT ( 'NONE',  ( 4.900000000000001200, 5.099999999999999600, -3.149999999999999900 ) ) ;
#1086 = STYLED_ITEM ( 'NONE', ( #520 ), #1081 ) ;
#1087 = EDGE_CURVE ( 'NONE', #243, #936, #672, .T. ) ;
#1088 = VECTOR ( 'NONE', #1281, 1000.000000000000000 ) ;
#1089 = DIRECTION ( 'NONE',  ( 0.0000000000000000000, -1.000000000000000000, -0.0000000000000000000 ) ) ;
#1090 = CARTESIAN_POINT ( 'NONE',  ( -4.550000000000001600, 0.05000000000000000300, 3.100000000000000500 ) ) ;
#1091 =( LENGTH_UNIT ( ) NAMED_UNIT ( * ) SI_UNIT ( .MILLI., .METRE. ) );
#1092 = ORIENTED_EDGE ( 'NONE', *, *, #551, .F. ) ;
#1093 = AXIS2_PLACEMENT_3D ( 'NONE', #357, #1045, #550 ) ;
#1094 = CARTESIAN_POINT ( 'NONE',  ( -4.550000000000001600, 0.0000000000000000000, 3.150000000000000400 ) ) ;
#1095 = CARTESIAN_POINT ( 'NONE',  ( 4.550000000000001600, 0.04999999999999969700, -3.100000000000000100 ) ) ;
#1096 = SURFACE_STYLE_FILL_AREA ( #1147 ) ;
#1097 = CARTESIAN_POINT ( 'NONE',  ( -4.550000000000001600, 5.099999999999999600, -3.149999999999999900 ) ) ;
#1098 = EDGE_CURVE ( 'NONE', #98, #628, #1250, .T. ) ;
#1099 = ORIENTED_EDGE ( 'NONE', *, *, #366, .F. ) ;
#1100 = ORIENTED_EDGE ( 'NONE', *, *, #225, .T. ) ;
#1101 = PLANE ( 'NONE',  #21 ) ;
#1102 = LINE ( 'NONE', #1312, #931 ) ;
#1103 = LINE ( 'NONE', #687, #486 ) ;
#1104 = CARTESIAN_POINT ( 'NONE',  ( 4.900000000000000400, 5.049999999999999800, -3.100000000000000100 ) ) ;
#1105 = COLOUR_RGB ( '',1.000000000000000000, 0.8117647058823529400, 0.5019607843137254800 ) ;
#1106 = CARTESIAN_POINT ( 'NONE',  ( 4.900000000000001200, 5.049999999999999800, 3.100000000000000500 ) ) ;
#1107 = CARTESIAN_POINT ( 'NONE',  ( 4.550000000000000700, 0.05000000000000000300, 3.100000000000000500 ) ) ;
#1108 = ORIENTED_EDGE ( 'NONE', *, *, #842, .F. ) ;
#1109 = CARTESIAN_POINT ( 'NONE',  ( -4.550000000000001600, 5.099999999999999600, -3.149999999999999900 ) ) ;
#1110 = SURFACE_SIDE_STYLE ('',( #103 ) ) ;
#1111 = FILL_AREA_STYLE ('',( #421 ) ) ;
#1112 = DIRECTION ( 'NONE',  ( -1.000000000000000000, 0.0000000000000000000, 0.0000000000000000000 ) ) ;
#1113 = CARTESIAN_POINT ( 'NONE',  ( -4.900000000000001200, 0.04999999999999969700, -3.100000000000000100 ) ) ;
#1114 = ORIENTED_EDGE ( 'NONE', *, *, #251, .T. ) ;
#1115 = EDGE_CURVE ( 'NONE', #1026, #326, #1133, .T. ) ;
#1116 = LINE ( 'NONE', #84, #347 ) ;
#1117 = CARTESIAN_POINT ( 'NONE',  ( -4.550000000000001600, 5.049999999999999800, 3.100000000000000500 ) ) ;
#1118 = SURFACE_STYLE_FILL_AREA ( #1111 ) ;
#1119 = STYLED_ITEM ( 'NONE', ( #23 ), #1144 ) ;
#1120 = SURFACE_SIDE_STYLE ('',( #719 ) ) ;
#1121 = VECTOR ( 'NONE', #1292, 1000.000000000000000 ) ;
#1122 = CARTESIAN_POINT ( 'NONE',  ( -4.550000000000000700, 5.049999999999999800, 3.100000000000000500 ) ) ;
#1123 = VERTEX_POINT ( 'NONE', #533 ) ;
#1124 = ORIENTED_EDGE ( 'NONE', *, *, #390, .T. ) ;
#1125 = PLANE ( 'NONE',  #1243 ) ;
#1126 = FILL_AREA_STYLE ('',( #626 ) ) ;
#1127 = PRESENTATION_STYLE_ASSIGNMENT (( #1280 ) ) ;
#1128 =( GEOMETRIC_REPRESENTATION_CONTEXT ( 3 ) GLOBAL_UNCERTAINTY_ASSIGNED_CONTEXT ( ( #260 ) ) GLOBAL_UNIT_ASSIGNED_CONTEXT ( ( #14, #540, #853 ) ) REPRESENTATION_CONTEXT ( 'NONE', 'WORKASPACE' ) );
#1129 = ORIENTED_EDGE ( 'NONE', *, *, #1171, .F. ) ;
#1130 = SURFACE_SIDE_STYLE ('',( #416 ) ) ;
#1131 = ORIENTED_EDGE ( 'NONE', *, *, #1213, .F. ) ;
#1132 = DIRECTION ( 'NONE',  ( 1.000000000000000000, 0.0000000000000000000, 0.0000000000000000000 ) ) ;
#1133 = LINE ( 'NONE', #838, #614 ) ;
#1134 = FACE_BOUND ( 'NONE', #969, .T. ) ;
#1135 = LINE ( 'NONE', #85, #836 ) ;
#1136 = CARTESIAN_POINT ( 'NONE',  ( 4.900000000000001200, 0.0000000000000000000, -3.149999999999999900 ) ) ;
#1137 = ADVANCED_FACE ( 'NONE', ( #1271 ), #917, .F. ) ;
#1138 = VECTOR ( 'NONE', #771, 1000.000000000000000 ) ;
#1139 = CARTESIAN_POINT ( 'NONE',  ( -4.550000000000000700, 0.05000000000000000300, -3.100000000000000100 ) ) ;
#1140 = PRESENTATION_LAYER_ASSIGNMENT (  '', '', ( #369 ) ) ;
#1141 = ORIENTED_EDGE ( 'NONE', *, *, #1076, .T. ) ;
#1142 = PLANE ( 'NONE',  #702 ) ;
#1143 = EDGE_CURVE ( 'NONE', #363, #101, #1083, .T. ) ;
#1144 = ADVANCED_FACE ( 'NONE', ( #34 ), #738, .F. ) ;
#1145 = UNCERTAINTY_MEASURE_WITH_UNIT (LENGTH_MEASURE( 1.000000000000000100E-005 ), #1038, 'distance_accuracy_value', 'NONE');
#1146 = LINE ( 'NONE', #648, #400 ) ;
#1147 = FILL_AREA_STYLE ('',( #634 ) ) ;
#1148 = PRODUCT ( 'ECWU1105KCV', 'ECWU1105KCV', '', ( #781 ) ) ;
#1149 = EDGE_LOOP ( 'NONE', ( #786, #467, #1261, #419 ) ) ;
#1150 = FILL_AREA_STYLE ('',( #455 ) ) ;
#1151 = ORIENTED_EDGE ( 'NONE', *, *, #1221, .F. ) ;
#1152 = VECTOR ( 'NONE', #418, 1000.000000000000000 ) ;
#1153 = EDGE_CURVE ( 'NONE', #766, #1285, #281, .T. ) ;
#1154 = FACE_OUTER_BOUND ( 'NONE', #860, .T. ) ;
#1155 = DIRECTION ( 'NONE',  ( -1.000000000000000000, 0.0000000000000000000, 0.0000000000000000000 ) ) ;
#1156 = DIRECTION ( 'NONE',  ( 0.0000000000000000000, 0.0000000000000000000, 1.000000000000000000 ) ) ;
#1157 = ORIENTED_EDGE ( 'NONE', *, *, #1186, .T. ) ;
#1158 = ADVANCED_FACE ( 'NONE', ( #184 ), #124, .T. ) ;
#1159 = APPLICATION_PROTOCOL_DEFINITION ( 'draft international standard', 'automotive_design', 1998, #1065 ) ;
#1160 = EDGE_CURVE ( 'NONE', #524, #1123, #1194, .T. ) ;
#1161 = ORIENTED_EDGE ( 'NONE', *, *, #148, .T. ) ;
#1162 = CARTESIAN_POINT ( 'NONE',  ( 4.550000000000001600, 5.099999999999999600, -3.149999999999999900 ) ) ;
#1163 = PLANE ( 'NONE',  #134 ) ;
#1164 = VERTEX_POINT ( 'NONE', #1117 ) ;
#1165 = STYLED_ITEM ( 'NONE', ( #797 ), #1256 ) ;
#1166 = FILL_AREA_STYLE_COLOUR ( '', #321 ) ;
#1167 =( LENGTH_UNIT ( ) NAMED_UNIT ( * ) SI_UNIT ( .MILLI., .METRE. ) );
#1168 = EDGE_LOOP ( 'NONE', ( #1176, #597, #1052, #941 ) ) ;
#1169 = DIRECTION ( 'NONE',  ( 0.0000000000000000000, 0.0000000000000000000, 1.000000000000000000 ) ) ;
#1170 =( NAMED_UNIT ( * ) PLANE_ANGLE_UNIT ( ) SI_UNIT ( $, .RADIAN. ) );
#1171 = EDGE_CURVE ( 'NONE', #138, #509, #521, .T. ) ;
#1172 = LINE ( 'NONE', #374, #646 ) ;
#1173 = CARTESIAN_POINT ( 'NONE',  ( -4.550000000000000700, 5.099999999999999600, 3.150000000000000400 ) ) ;
#1174 = VECTOR ( 'NONE', #709, 1000.000000000000000 ) ;
#1175 = PLANE ( 'NONE',  #1251 ) ;
#1176 = ORIENTED_EDGE ( 'NONE', *, *, #1115, .F. ) ;
#1177 = DIRECTION ( 'NONE',  ( 0.0000000000000000000, -1.000000000000000000, 0.0000000000000000000 ) ) ;
#1178 = DIRECTION ( 'NONE',  ( 0.0000000000000000000, -1.000000000000000000, 0.0000000000000000000 ) ) ;
#1179 = CARTESIAN_POINT ( 'NONE',  ( -4.550000000000001600, 0.04999999999999969700, -3.100000000000000100 ) ) ;
#1180 = ORIENTED_EDGE ( 'NONE', *, *, #40, .T. ) ;
#1181 = ORIENTED_EDGE ( 'NONE', *, *, #641, .F. ) ;
#1182 = CARTESIAN_POINT ( 'NONE',  ( -4.550000000000000700, 0.05000000000000000300, 3.100000000000000500 ) ) ;
#1183 = VECTOR ( 'NONE', #177, 1000.000000000000000 ) ;
#1184 = MANIFOLD_SOLID_BREP ( 'Substrate', #625 ) ;
#1185 = VECTOR ( 'NONE', #1132, 1000.000000000000000 ) ;
#1186 = EDGE_CURVE ( 'NONE', #581, #915, #339, .T. ) ;
#1187 = CARTESIAN_POINT ( 'NONE',  ( 4.550000000000001600, 5.049999999999999800, -3.100000000000000100 ) ) ;
#1188 = DIRECTION ( 'NONE',  ( 0.0000000000000000000, -1.000000000000000000, 0.0000000000000000000 ) ) ;
#1189 = EDGE_LOOP ( 'NONE', ( #609, #852, #53, #1131 ) ) ;
#1190 = AXIS2_PLACEMENT_3D ( 'NONE', #890, #892, #300 ) ;
#1191 = CARTESIAN_POINT ( 'NONE',  ( -4.900000000000001200, 5.099999999999999600, 3.150000000000000400 ) ) ;
#1192 = CARTESIAN_POINT ( 'NONE',  ( 4.550000000000000700, 5.099999999999999600, -3.149999999999999900 ) ) ;
#1193 = ORIENTED_EDGE ( 'NONE', *, *, #306, .F. ) ;
#1194 = LINE ( 'NONE', #523, #226 ) ;
#1195 = ORIENTED_EDGE ( 'NONE', *, *, #1231, .F. ) ;
#1196 = DIRECTION ( 'NONE',  ( -1.000000000000000000, 0.0000000000000000000, 0.0000000000000000000 ) ) ;
#1197 = CARTESIAN_POINT ( 'NONE',  ( -4.900000000000001200, 5.099999999999999600, -3.149999999999999900 ) ) ;
#1198 = EDGE_LOOP ( 'NONE', ( #703, #772, #33, #642 ) ) ;
#1199 =( NAMED_UNIT ( * ) SI_UNIT ( $, .STERADIAN. ) SOLID_ANGLE_UNIT ( ) );
#1200 = VECTOR ( 'NONE', #1217, 1000.000000000000000 ) ;
#1201 = DIRECTION ( 'NONE',  ( -1.000000000000000000, 0.0000000000000000000, 0.0000000000000000000 ) ) ;
#1202 = DIRECTION ( 'NONE',  ( 0.0000000000000000000, 0.0000000000000000000, -1.000000000000000000 ) ) ;
#1203 = SURFACE_STYLE_FILL_AREA ( #188 ) ;
#1204 = LINE ( 'NONE', #1094, #503 ) ;
#1205 = VECTOR ( 'NONE', #1249, 1000.000000000000000 ) ;
#1206 = PRESENTATION_STYLE_ASSIGNMENT (( #414 ) ) ;
#1207 = FILL_AREA_STYLE_COLOUR ( '', #603 ) ;
#1208 = VERTEX_POINT ( 'NONE', #132 ) ;
#1209 = CARTESIAN_POINT ( 'NONE',  ( 4.550000000000001600, 0.0000000000000000000, 3.150000000000000400 ) ) ;
#1210 = PRESENTATION_LAYER_ASSIGNMENT (  '', '', ( #1051 ) ) ;
#1211 = ORIENTED_EDGE ( 'NONE', *, *, #965, .F. ) ;
#1212 =( GEOMETRIC_REPRESENTATION_CONTEXT ( 3 ) GLOBAL_UNCERTAINTY_ASSIGNED_CONTEXT ( ( #575 ) ) GLOBAL_UNIT_ASSIGNED_CONTEXT ( ( #515, #13, #1220 ) ) REPRESENTATION_CONTEXT ( 'NONE', 'WORKASPACE' ) );
#1213 = EDGE_CURVE ( 'NONE', #110, #688, #958, .T. ) ;
#1214 = ORIENTED_EDGE ( 'NONE', *, *, #959, .F. ) ;
#1215 = VERTEX_POINT ( 'NONE', #39 ) ;
#1216 =( LENGTH_UNIT ( ) NAMED_UNIT ( * ) SI_UNIT ( .MILLI., .METRE. ) );
#1217 = DIRECTION ( 'NONE',  ( 0.0000000000000000000, 4.918255822766905200E-017, 1.000000000000000000 ) ) ;
#1218 = CARTESIAN_POINT ( 'NONE',  ( 4.550000000000001600, 0.04999999999999969700, -3.100000000000000100 ) ) ;
#1219 = PRESENTATION_STYLE_ASSIGNMENT (( #367 ) ) ;
#1220 =( NAMED_UNIT ( * ) SI_UNIT ( $, .STERADIAN. ) SOLID_ANGLE_UNIT ( ) );
#1221 = EDGE_CURVE ( 'NONE', #525, #766, #1283, .T. ) ;
#1222 = LINE ( 'NONE', #278, #430 ) ;
#1223 = ORIENTED_EDGE ( 'NONE', *, *, #720, .T. ) ;
#1224 = CARTESIAN_POINT ( 'NONE',  ( -4.550000000000001600, 0.0000000000000000000, 3.150000000000000400 ) ) ;
#1225 = DIRECTION ( 'NONE',  ( 0.0000000000000000000, -1.000000000000000000, 0.0000000000000000000 ) ) ;
#1226 = ORIENTED_EDGE ( 'NONE', *, *, #1221, .T. ) ;
#1227 = ORIENTED_EDGE ( 'NONE', *, *, #259, .T. ) ;
#1228 = COLOUR_RGB ( '',1.000000000000000000, 0.8117647058823529400, 0.5019607843137254800 ) ;
#1229 = DIRECTION ( 'NONE',  ( 0.0000000000000000000, 0.0000000000000000000, 1.000000000000000000 ) ) ;
#1230 = ORIENTED_EDGE ( 'NONE', *, *, #1070, .T. ) ;
#1231 = EDGE_CURVE ( 'NONE', #815, #901, #30, .T. ) ;
#1232 = ORIENTED_EDGE ( 'NONE', *, *, #331, .T. ) ;
#1233 =( LENGTH_UNIT ( ) NAMED_UNIT ( * ) SI_UNIT ( .MILLI., .METRE. ) );
#1234 = VECTOR ( 'NONE', #446, 1000.000000000000000 ) ;
#1235 = VECTOR ( 'NONE', #161, 1000.000000000000000 ) ;
#1236 = VECTOR ( 'NONE', #165, 1000.000000000000000 ) ;
#1237 = SURFACE_STYLE_USAGE ( .BOTH. , #1130 ) ;
#1238 = EDGE_LOOP ( 'NONE', ( #622, #189, #376, #375 ) ) ;
#1239 = ORIENTED_EDGE ( 'NONE', *, *, #225, .F. ) ;
#1240 = ADVANCED_FACE ( 'NONE', ( #732 ), #1142, .F. ) ;
#1241 =( GEOMETRIC_REPRESENTATION_CONTEXT ( 3 ) GLOBAL_UNCERTAINTY_ASSIGNED_CONTEXT ( ( #114 ) ) GLOBAL_UNIT_ASSIGNED_CONTEXT ( ( #222, #1025, #825 ) ) REPRESENTATION_CONTEXT ( 'NONE', 'WORKASPACE' ) );
#1242 = FILL_AREA_STYLE_COLOUR ( '', #1228 ) ;
#1243 = AXIS2_PLACEMENT_3D ( 'NONE', #714, #108, #1112 ) ;
#1244 = ORIENTED_EDGE ( 'NONE', *, *, #372, .T. ) ;
#1245 = STYLED_ITEM ( 'NONE', ( #409 ), #355 ) ;
#1246 = EDGE_CURVE ( 'NONE', #1208, #364, #576, .T. ) ;
#1247 = ADVANCED_FACE ( 'NONE', ( #667 ), #135, .T. ) ;
#1248 = VERTEX_POINT ( 'NONE', #43 ) ;
#1249 = DIRECTION ( 'NONE',  ( 0.0000000000000000000, 0.0000000000000000000, 1.000000000000000000 ) ) ;
#1250 = LINE ( 'NONE', #329, #582 ) ;
#1251 = AXIS2_PLACEMENT_3D ( 'NONE', #384, #1072, #88 ) ;
#1252 =( NAMED_UNIT ( * ) PLANE_ANGLE_UNIT ( ) SI_UNIT ( $, .RADIAN. ) );
#1253 = FACE_OUTER_BOUND ( 'NONE', #1149, .T. ) ;
#1254 = SURFACE_STYLE_FILL_AREA ( #780 ) ;
#1255 = DIRECTION ( 'NONE',  ( -1.000000000000000000, 0.0000000000000000000, 0.0000000000000000000 ) ) ;
#1256 = ADVANCED_FACE ( 'NONE', ( #984 ), #50, .T. ) ;
#1257 = FACE_BOUND ( 'NONE', #17, .T. ) ;
#1258 =( NAMED_UNIT ( * ) SI_UNIT ( $, .STERADIAN. ) SOLID_ANGLE_UNIT ( ) );
#1259 = VERTEX_POINT ( 'NONE', #1136 ) ;
#1260 = EDGE_CURVE ( 'NONE', #887, #815, #1146, .T. ) ;
#1261 = ORIENTED_EDGE ( 'NONE', *, *, #635, .T. ) ;
#1262 = ORIENTED_EDGE ( 'NONE', *, *, #760, .T. ) ;
#1263 = VECTOR ( 'NONE', #1155, 1000.000000000000000 ) ;
#1264 = ADVANCED_FACE ( 'NONE', ( #47 ), #1040, .F. ) ;
#1265 = AXIS2_PLACEMENT_3D ( 'NONE', #73, #1298, #784 ) ;
#1266 = ORIENTED_EDGE ( 'NONE', *, *, #821, .F. ) ;
#1267 = DIRECTION ( 'NONE',  ( 0.0000000000000000000, 0.0000000000000000000, 1.000000000000000000 ) ) ;
#1268 = EDGE_LOOP ( 'NONE', ( #562, #695, #335, #991 ) ) ;
#1269 = EDGE_LOOP ( 'NONE', ( #1232, #655, #1244, #1227 ) ) ;
#1270 = SURFACE_SIDE_STYLE ('',( #574 ) ) ;
#1271 = FACE_OUTER_BOUND ( 'NONE', #962, .T. ) ;
#1272 = CARTESIAN_POINT ( 'NONE',  ( -4.900000000000000400, 0.05000000000000000300, 3.100000000000000500 ) ) ;
#1273 = VECTOR ( 'NONE', #1177, 1000.000000000000000 ) ;
#1274 = VECTOR ( 'NONE', #309, 1000.000000000000000 ) ;
#1275 = CARTESIAN_POINT ( 'NONE',  ( 0.0000000000000000000, 0.0000000000000000000, 0.0000000000000000000 ) ) ;
#1276 = FACE_OUTER_BOUND ( 'NONE', #1269, .T. ) ;
#1277 =( NAMED_UNIT ( * ) PLANE_ANGLE_UNIT ( ) SI_UNIT ( $, .RADIAN. ) );
#1278 = EDGE_LOOP ( 'NONE', ( #209, #208, #20, #1077 ) ) ;
#1279 = DIRECTION ( 'NONE',  ( 0.0000000000000000000, -1.000000000000000000, 0.0000000000000000000 ) ) ;
#1280 = SURFACE_STYLE_USAGE ( .BOTH. , #75 ) ;
#1281 = DIRECTION ( 'NONE',  ( 1.000000000000000000, 0.0000000000000000000, 0.0000000000000000000 ) ) ;
#1282 = DIRECTION ( 'NONE',  ( -1.000000000000000000, -0.0000000000000000000, -0.0000000000000000000 ) ) ;
#1283 = LINE ( 'NONE', #445, #541 ) ;
#1284 =( LENGTH_UNIT ( ) NAMED_UNIT ( * ) SI_UNIT ( .MILLI., .METRE. ) );
#1285 = VERTEX_POINT ( 'NONE', #848 ) ;
#1286 = MECHANICAL_DESIGN_GEOMETRIC_PRESENTATION_REPRESENTATION (  '', ( #1119 ), #437 ) ;
#1287 = DIRECTION ( 'NONE',  ( 0.0000000000000000000, 1.000000000000000000, -0.0000000000000000000 ) ) ;
#1288 = ORIENTED_EDGE ( 'NONE', *, *, #856, .T. ) ;
#1289 = COLOUR_RGB ( '',1.000000000000000000, 0.8117647058823529400, 0.5019607843137254800 ) ;
#1290 = VECTOR ( 'NONE', #970, 1000.000000000000000 ) ;
#1291 = EDGE_CURVE ( 'NONE', #326, #858, #594, .T. ) ;
#1292 = DIRECTION ( 'NONE',  ( 0.0000000000000000000, -1.000000000000000000, 0.0000000000000000000 ) ) ;
#1293 = CARTESIAN_POINT ( 'NONE',  ( -4.900000000000000400, 5.049999999999999800, 3.100000000000000500 ) ) ;
#1294 = LINE ( 'NONE', #116, #1057 ) ;
#1295 = CARTESIAN_POINT ( 'NONE',  ( 0.0000000000000000000, 0.0000000000000000000, 0.0000000000000000000 ) ) ;
#1296 = UNCERTAINTY_MEASURE_WITH_UNIT (LENGTH_MEASURE( 1.000000000000000100E-005 ), #1167, 'distance_accuracy_value', 'NONE');
#1297 = CARTESIAN_POINT ( 'NONE',  ( 4.550000000000001600, 0.0000000000000000000, 3.150000000000000400 ) ) ;
#1298 = DIRECTION ( 'NONE',  ( 0.0000000000000000000, 0.0000000000000000000, 1.000000000000000000 ) ) ;
#1299 = EDGE_CURVE ( 'NONE', #524, #936, #388, .T. ) ;
#1300 = PLANE ( 'NONE',  #1190 ) ;
#1301 = ORIENTED_EDGE ( 'NONE', *, *, #1171, .T. ) ;
#1302 =( GEOMETRIC_REPRESENTATION_CONTEXT ( 3 ) GLOBAL_UNCERTAINTY_ASSIGNED_CONTEXT ( ( #1145 ) ) GLOBAL_UNIT_ASSIGNED_CONTEXT ( ( #1038, #322, #353 ) ) REPRESENTATION_CONTEXT ( 'NONE', 'WORKASPACE' ) );
#1303 = VERTEX_POINT ( 'NONE', #571 ) ;
#1304 = DIRECTION ( 'NONE',  ( 0.0000000000000000000, 0.0000000000000000000, -1.000000000000000000 ) ) ;
#1305 = CARTESIAN_POINT ( 'NONE',  ( 4.900000000000001200, 0.05000000000000000300, 3.100000000000000500 ) ) ;
#1306 = FILL_AREA_STYLE_COLOUR ( '', #1032 ) ;
#1307 = LINE ( 'NONE', #604, #567 ) ;
#1308 = PRESENTATION_LAYER_ASSIGNMENT (  '', '', ( #1031 ) ) ;
#1309 = EDGE_LOOP ( 'NONE', ( #341, #543, #182, #736 ) ) ;
#1310 = AXIS2_PLACEMENT_3D ( 'NONE', #1182, #881, #981 ) ;
#1311 =( NAMED_UNIT ( * ) SI_UNIT ( $, .STERADIAN. ) SOLID_ANGLE_UNIT ( ) );
#1312 = CARTESIAN_POINT ( 'NONE',  ( -4.550000000000001600, 5.099999999999999600, 3.150000000000000400 ) ) ;
#1313 = EDGE_CURVE ( 'NONE', #628, #1248, #539, .T. ) ;
ENDSEC;
END-ISO-10303-21;
